<mxfile host="app.diagrams.net" agent="Mozilla/5.0 (Windows NT 10.0; Win64; x64) AppleWebKit/537.36 (KHTML, like Gecko) Chrome/133.0.0.0 Safari/537.36" version="25.0.1">
  <diagram name="第 1 页" id="-mc5Oh4ew-6KM5OLLCTi">
    <mxGraphModel dx="1434" dy="746" grid="1" gridSize="10" guides="1" tooltips="1" connect="1" arrows="1" fold="1" page="1" pageScale="1" pageWidth="827" pageHeight="1169" math="0" shadow="0">
      <root>
        <mxCell id="0" />
        <mxCell id="1" parent="0" />
        <mxCell id="ImgrcDbzpY2Wqn9-QAdL-1" value="" style="shape=image;verticalLabelPosition=bottom;verticalAlign=top;imageAspect=0;aspect=fixed;image=data:image/svg+xml,PHN2ZyB4bWxuczp4bGluaz0iaHR0cDovL3d3dy53My5vcmcvMTk5OS94bGluayIgeG1sbnM9Imh0dHA6Ly93d3cudzMub3JnLzIwMDAvc3ZnIiBoZWlnaHQ9IjI1NiIgd2lkdGg9IjM2MiIgdmVyc2lvbj0iMS4xIiB2aWV3Qm94PSIwIDAgMTQ0OCAxMDI0IiBjbGFzcz0iaWNvbiI+PHBhdGggZmlsbD0iIzEyOTZkYiIgZD0iTTQ5NS4yIDE2OGMtMzguNCAzMi44LTYyLjQgODAuOC02Mi40IDEzNS4yIDAgNTMuNiAyNCAxMDEuNiA2Mi40IDEzNC40di0wLjhjNi40IDQuOCAyMC0xLjYgMzAuNC0xNC40IDkuNi0xMiAxMi44LTI0LjggOC0zMS4ybDAuOC0wLjhjLTI2LjQtMjIuNC00My4yLTU2LTQzLjItOTIuOCAwLTM0LjQgMTQuNC02NS42IDM4LjQtODggMCAwIDAuOCAwIDAuOC0wLjggNS42LTQuOCAyLjQtMTcuNi03LjItMjguOC05LjYtMTAuNC0yMS42LTE2LTI4LTEyIi8+PHBhdGggZmlsbD0iIzEyOTZkYiIgZD0iTTQwOS42IDk5LjJsLTEuNiAxLjZoLTAuOGwtMC44IDAuOEMzNDguOCAxNTAuNCAzMTIgMjIzLjIgMzEyIDMwMy4yczM2IDE1MiA5My42IDIwMS42YzAuOCAwLjggMC44IDAuOCAwLjggMS42IDYuNCA0LjggMjAtMS42IDMwLjQtMTMuNiAxMC40LTEyLjggMTMuNi0yNi40IDcuMi0zMi00NC44LTM4LjQtNzIuOC05NC40LTcyLjgtMTU2LjggMC02My4yIDI4LjgtMTE5LjIgNzMuNi0xNTcuNnYtMC44YzQtNi40IDAuOC0xOS4yLTguOC0zMC40LTcuMi0xMi0xOC40LTE4LjQtMjYuNC0xNiIvPjxwYXRoIGZpbGw9IiMxMjk2ZGIiIGQ9Ik05MzIuOCA0MzguNGMzOC40LTMyLjggNjIuNC04MC44IDYyLjQtMTM1LjIgMC01My42LTI0LTEwMS42LTYyLjQtMTM0LjR2MC44Yy02LjQtNC44LTIwIDEuNi0zMC40IDE0LjQtOS42IDEyLTEyLjggMjQuOC04IDMxLjJsLTAuOCAwLjhjMjYuNCAyMi40IDQzLjIgNTYgNDMuMiA5Mi44IDAgMzQuNC0xNC40IDY1LjYtMzguNCA4OCAwIDAtMC44IDAtMC44IDAuOC01LjYgNC44LTIuNCAxNy42IDcuMiAyOC44IDEwLjQgOS42IDIyLjQgMTUuMiAyOCAxMiIvPjxwYXRoIGZpbGw9IiMxMjk2ZGIiIGQ9Ik0xMDE4LjQgNTA3LjJsMS42LTEuNmgwLjhsMC44LTAuOGM1Ny42LTQ4LjggOTQuNC0xMjEuNiA5NC40LTIwMS42cy0zNi0xNTItOTMuNi0yMDEuNmMtMC44LTAuOC0wLjgtMC44LTAuOC0xLjYtNi40LTQuOC0yMCAxLjYtMzAuNCAxMy42LTEwLjQgMTIuOC0xMy42IDI2LjQtNy4yIDMyIDQ0LjggMzguNCA3Mi44IDk0LjQgNzIuOCAxNTYuOCAwIDYzLjItMjguOCAxMTkuMi03My42IDE1Ny42djAuOGMtNCA2LjQtMC44IDE5LjIgOC44IDMwLjQgNy4yIDEyIDE5LjIgMTcuNiAyNi40IDE2Ii8+PHBhdGggZmlsbD0iIzEyOTZkYiIgZD0iTTEwMDQgOTAxLjZoLTEwNy4yTDc4Ni40IDM3Ni44YzE4LjQtMTguNCAzMC40LTQ0IDMwLjQtNzIuOHYtMC44YzAtNDQtMjcuMi04MC44LTY1LjYtOTZWMTA4YzAtMjEuNi0xNi44LTM5LjItMzcuNi0zOS4ycy0zNy42IDE3LjYtMzcuNiAzOS4ydjk5LjJjLTM4LjQgMTUuMi02NC44IDUyLTY1LjYgOTUuMnYwLjhjMCAyOC44IDExLjIgNTQuNCAzMC40IDcyLjhsLTExNiA1MjQuOEg0MDkuNmMtMjAgMC0zNS4yIDE2LjgtMzUuMiAzNy42czE2IDM3LjYgMzUuMiAzNy42aDU5NS4yYzIwIDAgMzUuMi0xNi44IDM1LjItMzcuNiAwLTIwLTE2LTM2LjgtMzYtMzYuOHpNNjYzLjIgNTk0LjRoOTkuMmwyMC44IDEwNS42SDY0MC44bDIyLjQtMTA1LjZ6IG00OS42LTE4Ny4yYzQgMCA4IDAgMTItMC44bDI0IDEyNGgtNzMuNmwyNS42LTEyNGM0LjggMC44IDguOCAwLjggMTIgMC44ek02MjggNzYxLjZjMS42IDAgMy4yIDAuOCA0IDAuOGgxNTkuMmMxLjYgMCAyLjQgMCA0LTAuOGwyNy4yIDEzOS4yaC0yMjRsMjkuNi0xMzkuMnoiLz48L3N2Zz4=;fontStyle=1" vertex="1" parent="1">
          <mxGeometry x="410" y="210" width="236" height="166.89" as="geometry" />
        </mxCell>
        <mxCell id="ImgrcDbzpY2Wqn9-QAdL-3" value="" style="shape=image;verticalLabelPosition=bottom;verticalAlign=top;imageAspect=0;aspect=fixed;image=data:image/svg+xml,PHN2ZyB4bWxuczp4bGluaz0iaHR0cDovL3d3dy53My5vcmcvMTk5OS94bGluayIgeG1sbnM9Imh0dHA6Ly93d3cudzMub3JnLzIwMDAvc3ZnIiBoZWlnaHQ9IjI1NiIgd2lkdGg9IjM2MiIgdmVyc2lvbj0iMS4xIiB2aWV3Qm94PSIwIDAgMTQ0OCAxMDI0IiBjbGFzcz0iaWNvbiI+PHBhdGggZmlsbD0iIzEyOTZkYiIgZD0iTTQ5NS4yIDE2OGMtMzguNCAzMi44LTYyLjQgODAuOC02Mi40IDEzNS4yIDAgNTMuNiAyNCAxMDEuNiA2Mi40IDEzNC40di0wLjhjNi40IDQuOCAyMC0xLjYgMzAuNC0xNC40IDkuNi0xMiAxMi44LTI0LjggOC0zMS4ybDAuOC0wLjhjLTI2LjQtMjIuNC00My4yLTU2LTQzLjItOTIuOCAwLTM0LjQgMTQuNC02NS42IDM4LjQtODggMCAwIDAuOCAwIDAuOC0wLjggNS42LTQuOCAyLjQtMTcuNi03LjItMjguOC05LjYtMTAuNC0yMS42LTE2LTI4LTEyIi8+PHBhdGggZmlsbD0iIzEyOTZkYiIgZD0iTTQwOS42IDk5LjJsLTEuNiAxLjZoLTAuOGwtMC44IDAuOEMzNDguOCAxNTAuNCAzMTIgMjIzLjIgMzEyIDMwMy4yczM2IDE1MiA5My42IDIwMS42YzAuOCAwLjggMC44IDAuOCAwLjggMS42IDYuNCA0LjggMjAtMS42IDMwLjQtMTMuNiAxMC40LTEyLjggMTMuNi0yNi40IDcuMi0zMi00NC44LTM4LjQtNzIuOC05NC40LTcyLjgtMTU2LjggMC02My4yIDI4LjgtMTE5LjIgNzMuNi0xNTcuNnYtMC44YzQtNi40IDAuOC0xOS4yLTguOC0zMC40LTcuMi0xMi0xOC40LTE4LjQtMjYuNC0xNiIvPjxwYXRoIGZpbGw9IiMxMjk2ZGIiIGQ9Ik05MzIuOCA0MzguNGMzOC40LTMyLjggNjIuNC04MC44IDYyLjQtMTM1LjIgMC01My42LTI0LTEwMS42LTYyLjQtMTM0LjR2MC44Yy02LjQtNC44LTIwIDEuNi0zMC40IDE0LjQtOS42IDEyLTEyLjggMjQuOC04IDMxLjJsLTAuOCAwLjhjMjYuNCAyMi40IDQzLjIgNTYgNDMuMiA5Mi44IDAgMzQuNC0xNC40IDY1LjYtMzguNCA4OCAwIDAtMC44IDAtMC44IDAuOC01LjYgNC44LTIuNCAxNy42IDcuMiAyOC44IDEwLjQgOS42IDIyLjQgMTUuMiAyOCAxMiIvPjxwYXRoIGZpbGw9IiMxMjk2ZGIiIGQ9Ik0xMDE4LjQgNTA3LjJsMS42LTEuNmgwLjhsMC44LTAuOGM1Ny42LTQ4LjggOTQuNC0xMjEuNiA5NC40LTIwMS42cy0zNi0xNTItOTMuNi0yMDEuNmMtMC44LTAuOC0wLjgtMC44LTAuOC0xLjYtNi40LTQuOC0yMCAxLjYtMzAuNCAxMy42LTEwLjQgMTIuOC0xMy42IDI2LjQtNy4yIDMyIDQ0LjggMzguNCA3Mi44IDk0LjQgNzIuOCAxNTYuOCAwIDYzLjItMjguOCAxMTkuMi03My42IDE1Ny42djAuOGMtNCA2LjQtMC44IDE5LjIgOC44IDMwLjQgNy4yIDEyIDE5LjIgMTcuNiAyNi40IDE2Ii8+PHBhdGggZmlsbD0iIzEyOTZkYiIgZD0iTTEwMDQgOTAxLjZoLTEwNy4yTDc4Ni40IDM3Ni44YzE4LjQtMTguNCAzMC40LTQ0IDMwLjQtNzIuOHYtMC44YzAtNDQtMjcuMi04MC44LTY1LjYtOTZWMTA4YzAtMjEuNi0xNi44LTM5LjItMzcuNi0zOS4ycy0zNy42IDE3LjYtMzcuNiAzOS4ydjk5LjJjLTM4LjQgMTUuMi02NC44IDUyLTY1LjYgOTUuMnYwLjhjMCAyOC44IDExLjIgNTQuNCAzMC40IDcyLjhsLTExNiA1MjQuOEg0MDkuNmMtMjAgMC0zNS4yIDE2LjgtMzUuMiAzNy42czE2IDM3LjYgMzUuMiAzNy42aDU5NS4yYzIwIDAgMzUuMi0xNi44IDM1LjItMzcuNiAwLTIwLTE2LTM2LjgtMzYtMzYuOHpNNjYzLjIgNTk0LjRoOTkuMmwyMC44IDEwNS42SDY0MC44bDIyLjQtMTA1LjZ6IG00OS42LTE4Ny4yYzQgMCA4IDAgMTItMC44bDI0IDEyNGgtNzMuNmwyNS42LTEyNGM0LjggMC44IDguOCAwLjggMTIgMC44ek02MjggNzYxLjZjMS42IDAgMy4yIDAuOCA0IDAuOGgxNTkuMmMxLjYgMCAyLjQgMCA0LTAuOGwyNy4yIDEzOS4yaC0yMjRsMjkuNi0xMzkuMnoiLz48L3N2Zz4=;fontStyle=1" vertex="1" parent="1">
          <mxGeometry x="1090" y="210" width="236" height="166.89" as="geometry" />
        </mxCell>
        <mxCell id="ImgrcDbzpY2Wqn9-QAdL-4" value="" style="shape=image;verticalLabelPosition=bottom;verticalAlign=top;imageAspect=0;aspect=fixed;image=data:image/svg+xml,PHN2ZyB4bWxuczp4bGluaz0iaHR0cDovL3d3dy53My5vcmcvMTk5OS94bGluayIgeG1sbnM9Imh0dHA6Ly93d3cudzMub3JnLzIwMDAvc3ZnIiBoZWlnaHQ9IjIwMCIgd2lkdGg9IjIwMC4xOTUzMTI1IiBkYXRhLXNwbS1hbmNob3ItaWQ9ImEzMTN4LnNlYXJjaF9pbmRleC4wLmkzLjRjNzMzYTgxSXdHRk11IiB2ZXJzaW9uPSIxLjEiIHZpZXdCb3g9IjAgMCAxMDI1IDEwMjQiIGNsYXNzPSJpY29uIj48cGF0aCBmaWxsPSIjN2RjNWViIiBkPSJNMTAyNCA3MTMuNmMtNTUuMiAwLTcyLjgtODcuMi05NS4yLTE5OC40LTExLjItNTQuNC0zMS4yLTE1NC40LTUxLjItMTY0LTIwIDEwLjQtNDAgMTEwLjQtNTEuMiAxNjQtMjIuNCAxMTAuNC00MCAxOTguNC05NS4yIDE5OC40cy03Mi44LTg3LjItOTUuMi0xOTguNGMtMTEuMi01NC40LTMxLjItMTU0LjQtNTEuMi0xNjQtMjAgMTAuNC00MCAxMTAuNC01MS4yIDE2NC0yMi40IDExMC40LTQwIDE5OC40LTk1LjIgMTk4LjRzLTcyLjgtODcuMi05NS4yLTE5OC40Yy0xMS4yLTU0LjQtMzEuMi0xNTQuNC01MS4yLTE2NC0yMCAxMC40LTQwIDExMC40LTUxLjIgMTY0LTIyLjQgMTEwLjQtNDAgMTk4LjQtOTUuMiAxOTguNFM3Mi44IDYyNi40IDUwLjQgNTE1LjJDNDAuOCA0NjAuOCAyMCAzNTkuMiAwIDM1MS4ybDAuOC00MC44QzU2IDMxMC40IDczLjYgMzk3LjYgOTYgNTA4YzExLjIgNTQuNCAzMS4yIDE1NC40IDUxLjIgMTY0IDIwLTEwLjQgNDAtMTEwLjQgNTEuMi0xNjQgMjIuNC0xMTAuNCA0MC0xOTguNCA5NS4yLTE5OC40czcyLjggODcuMiA5NS4yIDE5OC40QzQwMCA1NjIuNCA0MjAgNjYyLjQgNDQwIDY3MmMyMC0xMC40IDQwLTExMC40IDUxLjItMTY0IDIyLjQtMTEwLjQgNDAtMTk4LjQgOTUuMi0xOTguNHM3Mi44IDg3LjIgOTUuMiAxOTguNGMxMS4yIDU0LjQgMzEuMiAxNTQuNCA1MS4yIDE2NCAyMC0xMC40IDQwLTExMC40IDUxLjItMTY0IDIyLjQtMTEwLjQgNDAtMTk4LjQgOTUuMi0xOTguNHM3Mi44IDg3LjIgOTUuMiAxOTguNGMxMS4yIDU0LjQgMzEuMiAxNTQuNCA1MS4yIDE2NGwtMS42IDQxLjZ6Ii8+PC9zdmc+" vertex="1" parent="1">
          <mxGeometry x="636" y="230" width="50" height="50" as="geometry" />
        </mxCell>
        <mxCell id="ImgrcDbzpY2Wqn9-QAdL-5" value="" style="shape=image;verticalLabelPosition=bottom;verticalAlign=top;imageAspect=0;aspect=fixed;image=data:image/svg+xml,PHN2ZyB4bWxuczp4bGluaz0iaHR0cDovL3d3dy53My5vcmcvMTk5OS94bGluayIgeG1sbnM9Imh0dHA6Ly93d3cudzMub3JnLzIwMDAvc3ZnIiBoZWlnaHQ9IjIwMCIgd2lkdGg9IjIwMC4xOTUzMTI1IiBkYXRhLXNwbS1hbmNob3ItaWQ9ImEzMTN4LnNlYXJjaF9pbmRleC4wLmkzLjRjNzMzYTgxSXdHRk11IiB2ZXJzaW9uPSIxLjEiIHZpZXdCb3g9IjAgMCAxMDI1IDEwMjQiIGNsYXNzPSJpY29uIj48cGF0aCBmaWxsPSIjN2RjNWViIiBkPSJNMTAyNCA3MTMuNmMtNTUuMiAwLTcyLjgtODcuMi05NS4yLTE5OC40LTExLjItNTQuNC0zMS4yLTE1NC40LTUxLjItMTY0LTIwIDEwLjQtNDAgMTEwLjQtNTEuMiAxNjQtMjIuNCAxMTAuNC00MCAxOTguNC05NS4yIDE5OC40cy03Mi44LTg3LjItOTUuMi0xOTguNGMtMTEuMi01NC40LTMxLjItMTU0LjQtNTEuMi0xNjQtMjAgMTAuNC00MCAxMTAuNC01MS4yIDE2NC0yMi40IDExMC40LTQwIDE5OC40LTk1LjIgMTk4LjRzLTcyLjgtODcuMi05NS4yLTE5OC40Yy0xMS4yLTU0LjQtMzEuMi0xNTQuNC01MS4yLTE2NC0yMCAxMC40LTQwIDExMC40LTUxLjIgMTY0LTIyLjQgMTEwLjQtNDAgMTk4LjQtOTUuMiAxOTguNFM3Mi44IDYyNi40IDUwLjQgNTE1LjJDNDAuOCA0NjAuOCAyMCAzNTkuMiAwIDM1MS4ybDAuOC00MC44QzU2IDMxMC40IDczLjYgMzk3LjYgOTYgNTA4YzExLjIgNTQuNCAzMS4yIDE1NC40IDUxLjIgMTY0IDIwLTEwLjQgNDAtMTEwLjQgNTEuMi0xNjQgMjIuNC0xMTAuNCA0MC0xOTguNCA5NS4yLTE5OC40czcyLjggODcuMiA5NS4yIDE5OC40QzQwMCA1NjIuNCA0MjAgNjYyLjQgNDQwIDY3MmMyMC0xMC40IDQwLTExMC40IDUxLjItMTY0IDIyLjQtMTEwLjQgNDAtMTk4LjQgOTUuMi0xOTguNHM3Mi44IDg3LjIgOTUuMiAxOTguNGMxMS4yIDU0LjQgMzEuMiAxNTQuNCA1MS4yIDE2NCAyMC0xMC40IDQwLTExMC40IDUxLjItMTY0IDIyLjQtMTEwLjQgNDAtMTk4LjQgOTUuMi0xOTguNHM3Mi44IDg3LjIgOTUuMiAxOTguNGMxMS4yIDU0LjQgMzEuMiAxNTQuNCA1MS4yIDE2NGwtMS42IDQxLjZ6Ii8+PC9zdmc+" vertex="1" parent="1">
          <mxGeometry x="1050" y="230" width="50" height="50" as="geometry" />
        </mxCell>
        <mxCell id="ImgrcDbzpY2Wqn9-QAdL-9" value="" style="shape=image;verticalLabelPosition=bottom;verticalAlign=top;imageAspect=0;aspect=fixed;image=data:image/svg+xml,PHN2ZyB4bWxuczp4bGluaz0iaHR0cDovL3d3dy53My5vcmcvMTk5OS94bGluayIgeG1sbnM9Imh0dHA6Ly93d3cudzMub3JnLzIwMDAvc3ZnIiBoZWlnaHQ9IjI1NiIgd2lkdGg9IjI1NiIgdmVyc2lvbj0iMS4xIiB2aWV3Qm94PSIwIDAgMTAyNCAxMDI0IiBjbGFzcz0iaWNvbiI+PHBhdGggZmlsbD0iI0QyRUNGRiIgZD0iTTI1NC41MDY2NjcgMzUwLjk3NkEyMzEuMzM4NjY3IDIzMS4zMzg2NjcgMCAwIDEgNDgwIDE3MC42NjY2NjdhMjMxLjI1MzMzMyAyMzEuMjUzMzMzIDAgMCAxIDIzMC45MTIgMjQwLjQyNjY2NiAxNjAuMDQyNjY3IDE2MC4wNDI2NjcgMCAxIDEgMTA2Ljg4IDI5MS45MjUzMzR2MC45ODEzMzNoLTUzMy4zMzMzMzNBMTc3Ljg3NzMzMyAxNzcuODc3MzMzIDAgMCAxIDEwNi42NjY2NjcgNTI2LjIwOGExNzcuOTIgMTc3LjkyIDAgMCAxIDE0Ny44NC0xNzUuMjMyeiIvPjxwYXRoIGZpbGw9IiM4RUNERkYiIGQ9Ik0xNzQuNzYyNjY3IDM4My41MzA2NjdjMjQuMDIxMzMzIDkuODEzMzMzLTAuNTEyIDgyLjE3Ni0zNS45NjggMTMzLjU0NjY2Ni0xOS4xNTczMzMgMjcuNzc2LTM3LjIwNTMzMyAxOS42NjkzMzMtMzAuODA1MzM0LTIxLjkzMDY2NiA2LjQtNDEuNjQyNjY3IDQzLjg2MTMzMy0xMjAuOTYgNjYuNzczMzM0LTExMS42MTZ6Ii8+PHBhdGggZmlsbD0iIzhFQ0RGRiIgZD0iTTQ1MS41ODQgODUuMzc2bDMuNTg0IDAuMDQyNjY3IDMuNTQxMzMzIDAuMTI4IDMuNTQxMzM0IDAuMTI4IDMuNTQxMzMzIDAuMjEzMzMzIDMuNTQxMzMzIDAuMjU2IDMuNDk4NjY3IDAuMjk4NjY3IDMuNDk4NjY3IDAuMzQxMzMzIDMuNDk4NjY2IDAuMzQxMzMzIDMuNDU2IDAuNDI2NjY3IDMuNDk4NjY3IDAuNDY5MzMzIDMuNDEzMzMzIDAuNTEyIDMuNDU2IDAuNTU0NjY3IDMuNDEzMzM0IDAuNTk3MzMzIDMuNDEzMzMzIDAuNTk3MzM0IDMuMzcwNjY3IDAuNjgyNjY2IDMuMzcwNjY2IDAuNzI1MzM0IDMuMzcwNjY3IDAuNzY4IDMuMzcwNjY3IDAuNzY4IDMuMzI4IDAuODUzMzMzIDMuMjg1MzMzIDAuODUzMzMzIDMuMzI4IDAuOTM4NjY3IDMuMjg1MzMzIDAuOTM4NjY3IDMuMjQyNjY3IDAuOTgxMzMzIDMuMjQyNjY3IDEuMDY2NjY3IDMuMjQyNjY2IDEuMDY2NjY2IDMuMiAxLjEwOTMzNCAzLjIgMS4xNTIgMy4xNTczMzQgMS4xNTIgMy4xNTczMzMgMS4yMzczMzMgMy4xNTczMzMgMS4yOCAzLjExNDY2NyAxLjI4IDMuMTE0NjY3IDEuMzIyNjY3IDMuMDcyIDEuNDA4IDMuMDcyIDEuNDA4IDMuMDI5MzMzIDEuNDA4IDMuMDI5MzMzIDEuNDkzMzMzIDIuOTg2NjY3IDEuNTM2IDIuOTg2NjY3IDEuNTM2IDIuOTQ0IDEuNTc4NjY3IDIuOTQ0IDEuNjIxMzMzIDIuOTAxMzMzIDEuNjY0IDIuOTAxMzMzIDEuNjY0IDIuODU4NjY3IDEuNzQ5MzMzIDIuODU4NjY3IDEuNzQ5MzM0IDIuODE2IDEuNzkyIDIuODE2IDEuNzkyIDIuNzczMzMzIDEuODc3MzMzIDIuNzczMzMzIDEuODc3MzMzIDIuNzMwNjY3IDEuOTIgMi42ODggMS45NjI2NjcgMi42ODggMS45NjI2NjcgMi42NDUzMzMgMi4wMDUzMzMgMi42NDUzMzQgMi4wNDggMi42MDI2NjYgMi4wOTA2NjcgMi42MDI2NjcgMi4wOTA2NjYgMi41NiAyLjEzMzMzNCAyLjUxNzMzMyAyLjE3NiAyLjQ3NDY2NyAyLjE3NiAyLjQ3NDY2NyAyLjIxODY2NiAyLjQ3NDY2NiAyLjI2MTMzNCAyLjQzMiAyLjMwNCAyLjM4OTMzNCAyLjMwNCAyLjM0NjY2NiAyLjM0NjY2NiAyLjM0NjY2NyAyLjM0NjY2NyAyLjMwNCAyLjM4OTMzMyAyLjMwNCAyLjQzMiAyLjI2MTMzMyAyLjQ3NDY2NyAyLjIxODY2NyAyLjQ3NDY2NyAyLjE3NiAyLjQ3NDY2NiAyLjE3NiAyLjUxNzMzNCAyLjEzMzMzMyAyLjU2IDIuMDkwNjY3IDIuNjAyNjY2IDIuMDkwNjY3IDIuNjAyNjY3IDIuMDQ4IDIuNjQ1MzMzIDIuMDA1MzMzIDIuNjQ1MzM0IDEuOTYyNjY3IDIuNjg4IDEuOTYyNjY2IDIuNjg4IDEuOTIgMi43MzA2NjYgMS44NzczMzQgMi43NzMzMzQgMS44NzczMzMgMi43NzMzMzMgMS43OTIgMi44MTYgMS43OTIgMi44MTYgMS43NDkzMzMgMi44NTg2NjcgMS43NDkzMzQgMi44NTg2NjYgMS42NjQgMi45MDEzMzQgMS42NjQgMi45MDEzMzMgMS42MjEzMzMgMi45NDQgMS41Nzg2NjcgMi45NDQgMS41MzYgMi45ODY2NjcgMS41MzYgMi45ODY2NjYgMS40OTMzMzMgMy4wMjkzMzQgMS40MDggMy4wMjkzMzMgMS40MDggMy4wNzIgMS40MDggMy4wNzIgMS4zMjI2NjcgMy4xMTQ2NjcgMS4yOCAzLjExNDY2NiAxLjI4IDMuMTU3MzM0IDEuMjM3MzMzIDMuMTU3MzMzIDEuMTUyIDMuMTU3MzMzIDEuMTUyIDMuMiAxLjEwOTMzMyAzLjIgMS4wNjY2NjcgMy4yNDI2NjcgMS4wNjY2NjcgMy4yNDI2NjcgMC45ODEzMzMgMy4yNDI2NjYgMC45Mzg2NjcgMy4yODUzMzQgMC45Mzg2NjYgMy4zMjggMC44NTMzMzQgMy4yODUzMzMgMC44NTMzMzMgMy4zMjggMC43NjggMy4zNzA2NjcgMC43NjggMy4zNzA2NjYgMC43MjUzMzMgMy4zNzA2NjcgMC42ODI2NjcgMy4zNzA2NjcgMC41OTczMzMgMy40MTMzMzMgMC41OTczMzQgMy40MTMzMzMgMC41NTQ2NjYgMy40NTYgMC41MTIgMy40MTMzMzQgMC40NjkzMzQgMy40OTg2NjYgMC40MjY2NjYgMy40NTYgMC4zNDEzMzQgMy40OTg2NjcgMC4zNDEzMzMgMy40OTg2NjcgMC4yOTg2NjcgMy40OTg2NjYgMC4yNTYgMy41NDEzMzQgMC4yMTMzMzMgMy41NDEzMzMgMC4xMjggMy41NDEzMzMgMC4xMjggMy41NDEzMzQgMC4wNDI2NjcgMy41ODRMNzI1LjMzMzMzMyAzNjIuNjY2NjY3bC0wLjA0MjY2NiA1LjU4OTMzMy0wLjE3MDY2NyA1LjU4OTMzMyAyLjg1ODY2Ny0xLjg3NzMzMyAyLjk0NC0xLjg3NzMzMyAyLjk0NC0xLjc5MiAyLjk4NjY2Ni0xLjc0OTMzNCAzLjAyOTMzNC0xLjY2NCAzLjA3Mi0xLjY2NCAzLjA3Mi0xLjU3ODY2NiAzLjExNDY2Ni0xLjUzNiAzLjE1NzMzNC0xLjQ5MzMzNCAzLjItMS40MDggMy4yLTEuMzY1MzMzIDMuMjQyNjY2LTEuMjggMy4yNDI2NjctMS4yOCAzLjMyOC0xLjE5NDY2NyAzLjMyOC0xLjEwOTMzMyAzLjMyOC0xLjA2NjY2NyAzLjQxMzMzMy0xLjAyNCAzLjM3MDY2Ny0wLjkzODY2NiAzLjQ1Ni0wLjg5NiAzLjQ1Ni0wLjg1MzMzNCAzLjQ1Ni0wLjc2OCAzLjQ5ODY2Ny0wLjY4MjY2NiAzLjU0MTMzMy0wLjY0IDMuNTQxMzMzLTAuNTk3MzM0IDMuNTg0LTAuNTEyIDMuNTg0LTAuNDI2NjY2IDMuNjI2NjY3LTAuMzg0IDMuNjI2NjY3LTAuMjk4NjY3IDMuNjI2NjY2LTAuMjU2IDMuNjY5MzM0LTAuMTcwNjY3IDMuNjY5MzMzLTAuMDg1MzMzTDgzMiAzNDEuMzMzMzMzbDQuOTQ5MzMzIDAuMDQyNjY3IDQuOTA2NjY3IDAuMjEzMzMzIDQuOTA2NjY3IDAuMjk4NjY3IDQuODY0IDAuNDI2NjY3IDQuODIxMzMzIDAuNTU0NjY2IDQuNzc4NjY3IDAuNjgyNjY3IDQuNzM2IDAuNzY4IDQuNjkzMzMzIDAuODk2IDQuNjkzMzMzIDEuMDI0IDQuNjA4IDEuMTUyIDQuNTY1MzM0IDEuMjM3MzMzIDQuNTY1MzMzIDEuMzIyNjY3IDQuNDggMS40OTMzMzMgNC40MzczMzMgMS41MzYgNC4zNTIgMS42NjQgNC4zNTIgMS43OTIgNC4yNjY2NjcgMS44NzczMzQgNC4yMjQgMS45NjI2NjYgNC4xODEzMzMgMi4wOTA2NjcgNC4wOTYgMi4xMzMzMzMgNC4wNTMzMzQgMi4zMDQgNC4wMTA2NjYgMi4zNDY2NjcgMy45MjUzMzQgMi40MzIgMy44NCAyLjU2IDMuNzk3MzMzIDIuNjQ1MzMzIDMuNzU0NjY3IDIuNjg4IDMuNjY5MzMzIDIuODE2IDMuNTg0IDIuOTAxMzM0IDMuNDk4NjY3IDIuOTg2NjY2IDMuNDU2IDMuMDcyIDMuMzcwNjY2IDMuMTE0NjY3IDMuMjg1MzM0IDMuMjQyNjY3IDMuMjQyNjY2IDMuMjg1MzMzIDMuMTE0NjY3IDMuMzcwNjY3IDMuMDcyIDMuNDU2IDIuOTg2NjY3IDMuNDk4NjY2IDIuOTAxMzMzIDMuNTg0IDIuODE2IDMuNjY5MzM0IDIuNjg4IDMuNzU0NjY2IDIuNjQ1MzMzIDMuNzk3MzM0IDIuNTYgMy44NCAyLjQzMiAzLjkyNTMzMyAyLjM0NjY2NyA0LjAxMDY2NyAyLjMwNCA0LjA1MzMzMyAyLjEzMzMzMyA0LjA5NiAyLjA5MDY2NyA0LjE4MTMzMyAxLjk2MjY2NyA0LjIyNCAxLjg3NzMzMyA0LjI2NjY2NyAxLjc5MiA0LjM1MiAxLjY2NCA0LjM1MiAxLjUzNiA0LjQzNzMzMyAxLjQ5MzMzMyA0LjQ4IDEuMzIyNjY3IDQuNTY1MzM0IDEuMjM3MzMzIDQuNTY1MzMzIDEuMTUyIDQuNjA4IDEuMDI0IDQuNjkzMzMzIDAuODk2IDQuNjkzMzM0IDAuNzY4IDQuNzM2IDAuNjgyNjY3IDQuNzc4NjY2IDAuNTU0NjY3IDQuODIxMzM0IDAuNDI2NjY2IDQuODY0IDAuMjk4NjY3IDQuOTA2NjY2IDAuMjEzMzMzIDQuOTA2NjY3IDAuMDQyNjY3IDQuOTQ5MzMzLTAuMDQyNjY3IDQuNjA4LTAuMTcwNjY2IDQuNjA4LTAuMjU2IDQuNTY1MzM0LTAuMzg0IDQuNTIyNjY2LTAuNDY5MzM0IDQuNDgtMC41OTczMzMgNC40OC0wLjY4MjY2NyA0LjQzNzMzNC0wLjgxMDY2NiA0LjQzNzMzMy0wLjg1MzMzNCA0LjM1Mi0wLjk4MTMzMyA0LjMwOTMzMy0xLjEwOTMzMyA0LjMwOTMzNC0xLjE1MiA0LjI2NjY2Ni0xLjI4IDQuMjI0LTEuMzY1MzM0IDQuMTgxMzM0LTEuNDUwNjY2IDQuMDk2LTEuNTc4NjY3IDQuMDk2LTEuNjIxMzMzIDQuMDUzMzMzLTEuNzQ5MzM0IDQuMDEwNjY3LTEuNzkyIDMuOTI1MzMzLTEuOTIgMy45MjUzMzMtMS45NjI2NjYgMy44NC0yLjA5MDY2NyAzLjc5NzMzNC0yLjEzMzMzMyAzLjc1NDY2Ni0yLjI2MTMzNCAzLjcxMi0yLjMwNCAzLjYyNjY2Ny0yLjM4OTMzMyAzLjU4NC0yLjQ3NDY2NyAzLjU0MTMzMy0yLjU2IDMuNDU2LTIuNjAyNjY2IDMuNDEzMzM0LTIuNjg4IDMuMzI4LTIuNzczMzM0IDMuMjg1MzMzLTIuODU4NjY2IDMuMjQyNjY3LTIuOTAxMzM0IDMuMTU3MzMzLTIuOTg2NjY2IDMuMDcyLTMuMDI5MzM0IDMuMDI5MzMzLTMuMTE0NjY2IDIuOTg2NjY3LTMuMiAyLjg1ODY2Ny0zLjI0MjY2NyAyLjgxNi0zLjI4NTMzMyAyLjc3MzMzMy0zLjM3MDY2NyAyLjY0NTMzMy0zLjQ1NiAyLjYwMjY2Ny0zLjQ1NiAyLjUxNzMzMy0zLjU0MTMzMyAyLjQ3NDY2Ny0zLjYyNjY2NyAyLjM0NjY2Ny0zLjY2OTMzMyAyLjMwNC0zLjcxMiAyLjE3Ni0zLjc1NDY2NyAyLjEzMzMzMy0zLjc5NzMzMyAyLjA0OC0zLjg4MjY2NyAxLjk2MjY2Ny0zLjkyNTMzMyAxLjg3NzMzMy0zLjk2OCAxLjc5Mi00LjAxMDY2NyAxLjcwNjY2Ny00LjA1MzMzMyAxLjU3ODY2Ni00LjA5NiAxLjUzNi00LjEzODY2NyAxLjQwOC00LjIyNCAxLjM2NTMzNC00LjIyNCAxLjIzNzMzMy00LjI2NjY2NyAxLjE1Mi00LjMwOTMzMyAxLjAyNC00LjM1MiAwLjk4MTMzMy00LjM1MiAwLjg1MzMzNC00LjQzNzMzMyAwLjcyNTMzMy00LjQzNzMzNCAwLjY4MjY2Ny00LjQ4IDAuNTEyVjcyNS4zMzMzMzNIMjEzLjMzMzMzM2gtMi43NzMzMzNsLTIuNzMwNjY3LTAuMDg1MzMzLTIuNzMwNjY2LTAuMDg1MzMzLTIuNzMwNjY3LTAuMTI4LTIuNzMwNjY3LTAuMTI4LTIuNjg4LTAuMjEzMzM0LTIuNzMwNjY2LTAuMjEzMzMzLTIuNjg4LTAuMjU2LTIuNjg4LTAuMjk4NjY3LTIuNjQ1MzM0LTAuMjk4NjY2LTIuNjg4LTAuMzg0LTIuNjQ1MzMzLTAuMzg0LTIuNjQ1MzMzLTAuNDI2NjY3LTIuNjQ1MzM0LTAuNDI2NjY3LTIuNjAyNjY2LTAuNTEyLTIuNjAyNjY3LTAuNTEyLTIuNjAyNjY3LTAuNTU0NjY2LTIuNjAyNjY2LTAuNTU0NjY3LTIuNTYtMC41OTczMzMtMi41Ni0wLjY4MjY2Ny0yLjU2LTAuNjQtMi41MTczMzQtMC43MjUzMzMtMi41MTczMzMtMC43MjUzMzQtMi41MTczMzMtMC43NjgtMi41MTczMzQtMC44MTA2NjYtMi40NzQ2NjYtMC44MTA2NjctMi40NzQ2NjctMC44NTMzMzMtMi40MzItMC44OTYtMi40NzQ2NjctMC44OTYtMi40MzItMC45Mzg2NjctNC43Nzg2NjYtMS45NjI2NjctNC43Nzg2NjctMi4wOTA2NjYtNC42OTMzMzMtMi4xNzYtNC42MDgtMi4zMDQtNC41NjUzMzQtMi40MzItNC41MjI2NjYtMi41MTczMzQtNC40MzczMzQtMi42MDI2NjYtNC4zNTItMi43MzA2NjctNC4zMDkzMzMtMi44MTYtNC4yMjQtMi45NDQtNC4xMzg2NjctMy4wMjkzMzMtNC4wNTMzMzMtMy4xMTQ2NjctNC4wMTA2NjctMy4yLTMuODgyNjY2LTMuMzI4LTMuODQtMy40MTMzMzMtMy43NTQ2NjctMy40NTYtMy42NjkzMzMtMy41ODQtMy41ODQtMy42NjkzMzQtMy40NTYtMy43NTQ2NjYtMy40MTMzMzQtMy44NC0zLjMyOC0zLjg4MjY2Ny0zLjItNC4wMTA2NjctMy4xMTQ2NjYtNC4wNTMzMzMtMy4wMjkzMzQtNC4xMzg2NjctMi45NDQtNC4yMjQtMi44MTYtNC4zMDkzMzMtMi43MzA2NjYtNC4zNTItMi42MDI2NjctNC40MzczMzMtMi41MTczMzMtNC41MjI2NjctMi40MzItNC41NjUzMzMtMi4zMDQtNC42MDgtMi4xNzYtNC42OTMzMzQtMi4wOTA2NjctNC43Nzg2NjYtMS45NjI2NjctNC43Nzg2NjctMC45Mzg2NjYtMi40MzItMC44OTYtMi40NzQ2NjctMC44OTYtMi40MzItMC44NTMzMzQtMi40NzQ2NjYtMC44MTA2NjYtMi40NzQ2NjctMC44MTA2NjctMi41MTczMzMtMC43NjgtMi41MTczMzQtMC43MjUzMzMtMi41MTczMzMtMC43MjUzMzQtMi41MTczMzMtMC42NC0yLjU2LTAuNjgyNjY2LTIuNTYtMC41OTczMzQtMi41Ni0wLjU1NDY2Ni0yLjYwMjY2Ny0wLjU1NDY2Ny0yLjYwMjY2Ny0wLjUxMi0yLjYwMjY2Ni0wLjUxMi0yLjYwMjY2Ny0wLjQyNjY2Ny0yLjY0NTMzMy0wLjQyNjY2Ni0yLjY0NTMzNC0wLjM4NC0yLjY0NTMzMy0wLjM4NC0yLjY4OC0wLjI5ODY2Ny0yLjY0NTMzMy0wLjI5ODY2Ny0yLjY4OC0wLjI1Ni0yLjY4OC0wLjIxMzMzMy0yLjczMDY2Ny0wLjIxMzMzMy0yLjY4OC0wLjEyOC0yLjczMDY2Ny0wLjEyOC0yLjczMDY2Ni0wLjA4NTMzNC0yLjczMDY2N0wwIDUxNC43NzMzMzNWNTEybDAuMDQyNjY3LTQuOTQ5MzMzIDAuMTcwNjY2LTQuOTA2NjY3IDAuMjk4NjY3LTQuODY0IDAuMzg0LTQuODIxMzMzIDAuNDY5MzMzLTQuODIxMzM0IDAuNTk3MzM0LTQuNzc4NjY2IDAuNzI1MzMzLTQuNzc4NjY3IDAuODEwNjY3LTQuNjkzMzMzIDAuODk2LTQuNjkzMzM0IDEuMDI0LTQuNjUwNjY2IDEuMTA5MzMzLTQuNjA4IDEuMjM3MzMzLTQuNTY1MzM0IDEuMjgtNC41MjI2NjYgMS40MDgtNC40OCAxLjQ5MzMzNC00LjQzNzMzNCAxLjYyMTMzMy00LjM5NDY2NiAxLjcwNjY2Ny00LjM1MiAxLjc0OTMzMy00LjMwOTMzNCAxLjg3NzMzMy00LjI2NjY2NiAxLjk2MjY2Ny00LjE4MTMzNCAyLjA0OC00LjE4MTMzMyAyLjEzMzMzMy00LjA5NiAyLjIxODY2Ny00LjA1MzMzMyAyLjM0NjY2Ny00LjAxMDY2NyAyLjM4OTMzMy0zLjkyNTMzMyAyLjQ3NDY2Ny0zLjg4MjY2NyAyLjUxNzMzMy0zLjg0IDIuNjQ1MzMzLTMuNzU0NjY3IDIuNzMwNjY3LTMuNzEyIDIuNzczMzMzLTMuNjY5MzMzIDIuODU4NjY3LTMuNTg0IDIuOTQ0LTMuNTQxMzMzIDMuMDI5MzMzLTMuNDU2IDMuMDcyLTMuMzcwNjY3IDMuMTU3MzM0LTMuMzI4IDMuMjQyNjY2LTMuMjg1MzMzIDMuMjg1MzM0LTMuMTU3MzM0IDMuMzcwNjY2LTMuMTE0NjY2IDMuNDU2LTMuMDcyIDMuNDk4NjY3LTIuOTQ0IDMuNTQxMzMzLTIuOTAxMzM0IDMuNjI2NjY3LTIuODU4NjY2IDMuNjY5MzMzLTIuNzMwNjY3IDMuNzU0NjY3LTIuNjQ1MzMzIDMuNzk3MzMzLTIuNjAyNjY3IDMuODgyNjY3LTIuNTE3MzMzIDMuOTI1MzMzLTIuNDMyIDMuOTY4LTIuMzQ2NjY3IDQuMDEwNjY3LTIuMjYxMzMzIDQuMDk2LTIuMTc2IDQuMTM4NjY3LTIuMDkwNjY3IDQuMTgxMzMzLTEuOTYyNjY3IDQuMjI0LTEuOTIgNC4zMDkzMzMtMS44MzQ2NjYgNC4zMDkzMzQtMS43MDY2NjcgNC4zOTQ2NjYtMS42NjQgNC40MzczMzQtMS41MzYgNC40MzczMzMtMS40NTA2NjcgNC41MjI2NjctMS4zNjUzMzMgNC41MjI2NjYtMS4yMzczMzMgNC42MDgtMS4xNTIgNC42MDgtMS4wNjY2NjcgNC42OTMzMzQtMC45Mzg2NjcgNC42OTMzMzMtMC44NTMzMzMgMC42ODI2NjctMi45MDEzMzMgMC42ODI2NjYtMi45MDEzMzQgMS40OTMzMzQtNS43MTczMzMgMS41Nzg2NjYtNS42NzQ2NjcgMS43NDkzMzQtNS42MzIgMS44MzQ2NjYtNS41ODkzMzMgMS45Mi01LjU0NjY2NyAyLjA5MDY2Ny01LjQ2MTMzMyAyLjE3Ni01LjQxODY2NyAyLjI2MTMzMy01LjM3NiAyLjM4OTMzNC01LjI5MDY2NiAyLjUxNzMzMy01LjI0OCAyLjYwMjY2Ny01LjE2MjY2NyAyLjY4OC01LjEyIDIuODE2LTUuMDc3MzMzIDIuOTQ0LTQuOTkyIDIuOTg2NjY2LTQuOTA2NjY3IDMuMTE0NjY3LTQuODY0IDMuMjQyNjY3LTQuNzc4NjY3IDMuMjg1MzMzLTQuNzM2IDMuNDEzMzMzLTQuNjUwNjY2IDMuNDk4NjY3LTQuNTY1MzM0IDMuNTg0LTQuNDggMy42NjkzMzMtNC40MzczMzMgMy43OTczMzQtNC4zMDkzMzMgMy44NC00LjI2NjY2NyAzLjkyNTMzMy00LjE4MTMzMyA0LjA1MzMzMy00LjA5NiA0LjA5Ni00LjAxMDY2NyA0LjE4MTMzNC0zLjkyNTMzMyA0LjI2NjY2Ni0zLjg4MjY2NyA0LjM1Mi0zLjc1NDY2NyA0LjQzNzMzNC0zLjYyNjY2NiA0LjUyMjY2Ni0zLjU4NCA0LjU2NTMzNC0zLjQ5ODY2NyA0LjY1MDY2Ni0zLjM3MDY2NyA0LjczNi0zLjI4NTMzMyA0LjgyMTMzNC0zLjIgNC44NjQtMy4xMTQ2NjcgNC45MDY2NjYtMi45ODY2NjYgNC45OTItMi45MDEzMzQgNS4wNzczMzQtMi44MTYgNS4xMi0yLjY4OCA1LjIwNTMzMy0yLjYwMjY2NiA1LjI0OC0yLjQ3NDY2NyA1LjMzMzMzMy0yLjM4OTMzMyA1LjM3Ni0yLjI2MTMzNCA1LjQxODY2Ny0yLjE3NiA1LjQ2MTMzMy0yLjA0OCA1LjU0NjY2Ny0xLjkyIDUuNTg5MzMzLTEuODM0NjY2IDUuNjMyLTEuNjY0IDUuNzE3MzM0LTEuNjIxMzM0IDUuNzE3MzMzLTEuNDUwNjY2IDIuOTAxMzMzLTAuNjgyNjY3IDIuOTAxMzM0LTAuNjgyNjY3IDIuOTAxMzMzLTAuNTk3MzMzIDIuOTQ0LTAuNTk3MzMzIDIuOTAxMzMzLTAuNTk3MzM0IDIuOTQ0LTAuNTEyIDIuOTQ0LTAuNTEyIDIuOTg2NjY3LTAuNDY5MzMzIDIuOTg2NjY3LTAuNDI2NjY3IDIuOTg2NjY2LTAuNDI2NjY2IDIuOTg2NjY3LTAuMzg0IDIuOTg2NjY3LTAuMzQxMzM0IDMuMDI5MzMzLTAuMjk4NjY2IDMuMDI5MzMzLTAuMjk4NjY3IDMuMDI5MzM0LTAuMjU2IDMuMDI5MzMzLTAuMjEzMzMzIDMuMDcyLTAuMTcwNjY3IDMuMDI5MzMzLTAuMTcwNjY3IDMuMDcyLTAuMDg1MzMzIDMuMDcyLTAuMDg1MzMzIDMuMTE0NjY3LTAuMDg1MzM0aDMuMDcybDMuNTg0IDAuMDQyNjY3ek00NDUuMzU0NjY3IDEyOGwtMi42MDI2NjcgMC4wNDI2NjctMi42MDI2NjcgMC4wODUzMzMtMi42MDI2NjYgMC4wODUzMzMtMi42MDI2NjcgMC4xMjgtMi41NiAwLjE3MDY2Ny0yLjYwMjY2NyAwLjE3MDY2Ny0yLjU2IDAuMjEzMzMzLTIuNTYgMC4yNTYtMi41NiAwLjI1Ni0yLjUxNzMzMyAwLjI5ODY2Ny0yLjU2IDAuMjk4NjY2LTIuNTE3MzMzIDAuMzg0LTIuNTE3MzM0IDAuMzQxMzM0LTIuNTE3MzMzIDAuNDI2NjY2LTIuNDc0NjY3IDAuNDI2NjY3LTIuNDc0NjY2IDAuNDI2NjY3LTIuNTE3MzM0IDAuNTEyLTIuNDMyIDAuNDY5MzMzLTIuNDc0NjY2IDAuNTU0NjY3LTIuNDMyIDAuNTU0NjY2LTIuMzQ2NjY3IDAuNTU0NjY3LTQuOTQ5MzMzIDEuMjgtNC44MjEzMzQgMS4zMjI2NjctNC43Nzg2NjYgMS40NTA2NjYtNC42OTMzMzQgMS41MzYtNC42OTMzMzMgMS42MjEzMzQtNC42NTA2NjcgMS43NDkzMzMtNC41NjUzMzMgMS43OTItNC41MjI2NjcgMS45Mi00LjUyMjY2NiAyLjAwNTMzMy00LjQzNzMzNCAyLjEzMzMzNC00LjM5NDY2NiAyLjE3Ni00LjMwOTMzNCAyLjI2MTMzMy00LjMwOTMzMyAyLjM4OTMzMy00LjIyNCAyLjQzMi00LjE4MTMzMyAyLjU2LTQuMDk2IDIuNjAyNjY3LTQuMDk2IDIuNzMwNjY3LTMuOTY4IDIuNzczMzMzLTMuOTY4IDIuODU4NjY3LTMuODgyNjY3IDIuOTg2NjY2LTMuNzk3MzMzIDMuMDI5MzM0LTMuNzU0NjY3IDMuMDcyLTMuNzEyIDMuMi0zLjU4NCAzLjI0MjY2Ni0zLjU4NCAzLjMyOC0zLjQ1NiAzLjQxMzMzNC0zLjQxMzMzMyAzLjQ1Ni0zLjMyOCAzLjU0MTMzMy0zLjI4NTMzNCAzLjYyNjY2Ny0zLjIgMy42NjkzMzMtMy4xMTQ2NjYgMy43NTQ2NjctMy4wMjkzMzQgMy43OTczMzMtMi45NDQgMy44ODI2NjctMi45MDEzMzMgMy45MjUzMzMtMi44MTYgMy45NjgtMi42ODggNC4wNTMzMzMtMi42NDUzMzMgNC4xMzg2NjctMi41NiA0LjEzODY2Ny0yLjQ3NDY2NyA0LjIyNC0yLjM4OTMzMyA0LjMwOTMzMy0yLjI2MTMzNCA0LjMwOTMzMy0yLjIxODY2NiA0LjM5NDY2Ny0yLjEzMzMzNCA0LjQzNzMzMy0yLjAwNTMzMyA0LjQ4LTEuOTIgNC41MjI2NjctMS44MzQ2NjcgNC42MDgtMS43NDkzMzMgNC42MDgtMS42NjQgNC42NTA2NjctMS41MzYgNC43MzYtMS40NTA2NjcgNC43Nzg2NjYtMS4zNjUzMzMgNC43Nzg2NjctMS4yOCA0Ljk0OTMzMy0wLjU1NDY2NyAyLjM0NjY2Ny0wLjY0IDIuNjQ1MzMzLTEuMTA5MzMzIDQuMDEwNjY3LTEuNDkzMzMzIDMuODQtMS44NzczMzQgMy43MTItMi4yMTg2NjYgMy40NTYtMi41NiAzLjI4NTMzMy0yLjg1ODY2NyAyLjk4NjY2Ny0zLjExNDY2NyAyLjczMDY2Ny0zLjM3MDY2NiAyLjM4OTMzMy0zLjYyNjY2NyAyLjA0OC0zLjc1NDY2NyAxLjcwNjY2Ny0zLjkyNTMzMyAxLjMyMjY2Ni00LjA1MzMzMyAwLjkzODY2Ny00LjIyNCAwLjc2OC0zLjcxMiAwLjc2OC0zLjcxMiAwLjgxMDY2Ny0zLjYyNjY2NyAwLjkzODY2Ni0zLjY2OTMzMyAwLjk4MTMzNC0zLjU4NCAxLjEwOTMzMy0zLjU0MTMzNCAxLjE1Mi0zLjU0MTMzMyAxLjIzNzMzMy0zLjQ5ODY2NyAxLjI4LTMuNDU2IDEuNDA4LTMuNDEzMzMzIDEuNDUwNjY3LTMuNDEzMzMzIDEuNTM2LTMuMzI4IDEuNTc4NjY3LTMuMjg1MzM0IDEuNjY0LTMuMjg1MzMzIDEuNzQ5MzMzLTMuMjQyNjY3IDEuNzkyLTMuMTU3MzMzIDEuODc3MzMzLTMuMTU3MzMzIDEuOTYyNjY3LTMuMDcyIDIuMDA1MzMzLTMuMDI5MzM0IDIuMDQ4LTMuMDI5MzMzIDIuMTMzMzM0LTIuOTQ0IDIuMjE4NjY2LTIuOTAxMzMzIDIuMjYxMzM0LTIuODU4NjY3IDIuMzA0LTIuODE2IDIuMzg5MzMzLTIuNzMwNjY3IDIuNDMyLTIuNjg4IDIuNTE3MzMzLTIuNjQ1MzMzIDIuNTYtMi42MDI2NjcgMi42MDI2NjctMi41MTczMzMgMi42ODgtMi40NzQ2NjcgMi42ODgtMi40MzIgMi43NzMzMzMtMi4zNDY2NjYgMi44NTg2NjctMi4zMDQgMi44NTg2NjctMi4yMTg2NjcgMi45MDEzMzMtMi4xNzYgMi45ODY2NjctMi4xMzMzMzMgMy4wMjkzMzMtMi4wNDggMy4wNzItMS45NjI2NjcgMy4xMTQ2NjctMS45MiAzLjE1NzMzMy0xLjgzNDY2NyAzLjItMS43OTIgMy4yNDI2NjctMS43MDY2NjYgMy4yODUzMzMtMS42MjEzMzQgMy4yODUzMzMtMS41Nzg2NjYgMy4zNzA2NjctMS40OTMzMzQgMy40MTMzMzMtMS40MDggMy40MTMzMzQtMS4zNjUzMzMgMy40OTg2NjYtMS4yOCAzLjQ5ODY2Ny0xLjE5NDY2NyAzLjU0MTMzMy0xLjEwOTMzMyAzLjU4NC0xLjA2NjY2NyAzLjYyNjY2Ny0wLjk4MTMzMyAzLjYyNjY2Ny0wLjg1MzMzMyAzLjY2OTMzMy0wLjgxMDY2NyAzLjcxMi0wLjcyNTMzMyAzLjc1NDY2Ny0wLjY4MjY2NyAzLjc1NDY2Ni0wLjU1NDY2NyAzLjc5NzMzNC0wLjQ2OTMzMyAzLjg0LTAuMzg0IDMuODQtMC4zNDEzMzMgMy44ODI2NjYtMC4yMTMzMzQgMy45MjUzMzQtMC4xMjggMy45MjUzMzMtMC4wNDI2NjYgNC4wOTZ2Mi4wOTA2NjdsMC4wNDI2NjYgMi4yMTg2NjYgMC4wODUzMzQgMi4xNzYgMC4wODUzMzMgMi4xNzYgMC4xMjggMi4yMTg2NjcgMC4xNzA2NjcgMi4xMzMzMzMgMC4xNzA2NjYgMi4xNzYgMC4yMTMzMzQgMi4xNzYgMC4yMTMzMzMgMi4xMzMzMzQgMC4yNTYgMi4xMzMzMzMgMC4yOTg2NjcgMi4xMzMzMzMgMC4yOTg2NjYgMi4xMzMzMzQgMC4zNDEzMzQgMi4wOTA2NjYgMC4zODQgMi4xMzMzMzQgMC4zODQgMi4wOTA2NjYgMC4zODQgMi4wNDggMC40NjkzMzMgMi4wOTA2NjcgMC40MjY2NjcgMi4wNDggMC41MTIgMi4wOTA2NjcgMC41MTIgMi4wNDggMC41NTQ2NjYgMi4wMDUzMzMgMC41NTQ2NjcgMi4wNDggMC41NTQ2NjcgMi4wMDUzMzMgMC42NCAyLjAwNTMzNCAwLjY0IDIuMDA1MzMzIDAuNjQgMS45NjI2NjcgMC42ODI2NjYgMS45NjI2NjYgMC43MjUzMzQgMS45NjI2NjcgMC43MjUzMzMgMS45NjI2NjcgMC42ODI2NjcgMS44MzQ2NjYgMS42MjEzMzMgMy45NjggMS42NjQgMy43OTczMzQgMS43NDkzMzMgMy43NTQ2NjYgMS44MzQ2NjcgMy42NjkzMzQgMS45NjI2NjcgMy42NjkzMzMgMi4wMDUzMzMgMy41ODQgMi4wOTA2NjcgMy41NDEzMzMgMi4xNzYgMy40OTg2NjcgMi4yNjEzMzMgMy40NTYgMi4zNDY2NjcgMy4zNzA2NjcgMi40MzIgMy4zMjggMi40NzQ2NjYgMy4yNDI2NjYgMi42MDI2NjcgMy4yIDIuNjQ1MzMzIDMuMTU3MzM0IDIuNzMwNjY3IDMuMDI5MzMzIDIuNzczMzMzIDMuMDI5MzMzIDIuODU4NjY3IDIuOTQ0IDIuOTQ0IDIuODU4NjY3IDMuMDI5MzMzIDIuNzczMzMzIDMuMDI5MzM0IDIuNzMwNjY3IDMuMTU3MzMzIDIuNjQ1MzMzIDMuMiAyLjYwMjY2NyAzLjI0MjY2NyAyLjQ3NDY2NyAzLjMyOCAyLjQzMiAzLjM3MDY2NiAyLjM0NjY2NiAzLjQ1NiAyLjI2MTMzNCAzLjQ5ODY2NyAyLjE3NiAzLjU0MTMzMyAyLjA5MDY2NiAzLjU4NCAyLjAwNTMzNCAzLjY2OTMzNCAxLjk2MjY2NiAzLjY2OTMzMyAxLjgzNDY2NyAzLjc1NDY2NyAxLjc0OTMzMyAzLjc5NzMzMyAxLjY2NCAzLjk2OCAxLjYyMTMzNCAxLjgzNDY2NyAwLjY4MjY2NiAxLjk2MjY2NiAwLjcyNTMzNCAxLjk2MjY2NyAwLjcyNTMzMyAxLjk2MjY2NyAwLjY4MjY2NyAxLjk2MjY2NiAwLjY0IDIuMDA1MzM0IDAuNjQgMi4wMDUzMzMgMC42NCAyLjAwNTMzMyAwLjU1NDY2NiAyLjA0OCAwLjU1NDY2NyAyLjAwNTMzNCAwLjU1NDY2NyAyLjA0OCAwLjUxMiAyLjA5MDY2NiAwLjUxMiAyLjA0OCAwLjQyNjY2NiAyLjA5MDY2NyAwLjQ2OTMzNCAyLjA0OCAwLjM4NCAyLjA5MDY2NyAwLjM4NCAyLjEzMzMzMyAwLjM4NCAyLjA5MDY2NyAwLjM0MTMzMyAyLjEzMzMzMyAwLjI5ODY2NyAyLjEzMzMzMyAwLjI5ODY2NiAyLjEzMzMzNCAwLjI1NiAyLjEzMzMzMyAwLjIxMzMzNCAyLjE3NiAwLjIxMzMzMyAyLjEzMzMzMyAwLjE3MDY2NyAyLjE3NiAwLjE3MDY2NiAyLjIxODY2NyAwLjEyOCAyLjE3NiAwLjA4NTMzNCAyLjE3NiAwLjA4NTMzMyAyLjIxODY2NyAwLjA0MjY2N2g2MzIuMzYyNjY2bDAuNTk3MzM0LTAuMTcwNjY3IDQuMDUzMzMzLTAuNjgyNjY3IDQuMDEwNjY3LTAuNTEyIDMuNDU2LTAuNDY5MzMzIDMuNDEzMzMzLTAuNTk3MzMzIDMuNDEzMzMzLTAuNjgyNjY3IDMuMzcwNjY3LTAuNzI1MzMzIDMuMzI4LTAuODEwNjY3IDMuMzI4LTAuODk2IDMuMjg1MzMzLTAuOTgxMzMzIDMuMjQyNjY3LTEuMDI0IDMuMi0xLjEwOTMzNCAzLjItMS4xNTIgMy4xNTczMzMtMS4yOCAzLjExNDY2Ny0xLjMyMjY2NiAzLjA3Mi0xLjM2NTMzNCAzLjAyOTMzMy0xLjQ1MDY2NiAzLjAyOTMzNC0xLjUzNiAyLjk0NC0xLjU3ODY2NyAyLjk0NC0xLjY2NCAyLjkwMTMzMy0xLjcwNjY2NyAyLjgxNi0xLjc5MiAyLjgxNi0xLjgzNDY2NiAyLjc3MzMzMy0xLjkyIDIuNjg4LTEuOTYyNjY3IDIuNjg4LTIuMDA1MzMzIDIuNjQ1MzM0LTIuMDkwNjY3IDIuNTYtMi4xMzMzMzMgMi41MTczMzMtMi4yMTg2NjcgMi40NzQ2NjctMi4yMTg2NjcgMi40MzItMi4zMDQgMi4zODkzMzMtMi4zODkzMzMgMi4zMDQtMi4zODkzMzMgMi4yNjEzMzMtMi40NzQ2NjcgMi4yMTg2NjctMi41MTczMzMgMi4xNzYtMi41NiAyLjA5MDY2Ny0yLjYwMjY2NyAyLjA0OC0yLjY0NTMzMyAxLjk2MjY2Ni0yLjY4OCAxLjkyLTIuNzczMzM0IDEuODc3MzM0LTIuNzczMzMzIDEuNzkyLTIuODE2IDEuNzQ5MzMzLTIuOTAxMzMzIDEuNjY0LTIuOTAxMzM0IDEuNjIxMzMzLTIuOTQ0IDEuNTM2LTIuOTg2NjY2IDEuNDkzMzM0LTMuMDcyIDEuNDA4LTMuMDI5MzM0IDEuMzIyNjY2LTMuMTE0NjY2IDEuMjgtMy4xNTczMzQgMS4xOTQ2NjctMy4xNTczMzMgMS4xNTItMy4yIDEuMDY2NjY3LTMuMjQyNjY3IDAuOTgxMzMzLTMuMjg1MzMzIDAuODk2LTMuMjg1MzMzIDAuODUzMzMzLTMuMzI4IDAuNzY4LTMuMzcwNjY3IDAuNjgyNjY3LTMuNDEzMzMzIDAuNTk3MzMzLTMuNDEzMzM0IDAuNTU0NjY3LTMuNDU2IDAuNDI2NjY3LTMuNDU2IDAuMzg0LTMuNDk4NjY2IDAuMjk4NjY2LTMuNTQxMzM0IDAuMjEzMzM0LTMuNTQxMzMzIDAuMTI4LTMuNTg0TDk4MS4zMzMzMzMgNTMzLjMzMzMzM2wtMC4wNDI2NjYtMy44ODI2NjYtMC4xNzA2NjctMy44NC0wLjIxMzMzMy0zLjc5NzMzNC0wLjM0MTMzNC0zLjc5NzMzMy0wLjQyNjY2Ni0zLjc1NDY2Ny0wLjUxMi0zLjcxMi0wLjY0LTMuNjY5MzMzLTAuNjgyNjY3LTMuNjY5MzMzLTAuODEwNjY3LTMuNjI2NjY3LTAuODUzMzMzLTMuNTg0LTAuOTgxMzMzLTMuNTQxMzMzLTEuMDI0LTMuNDk4NjY3LTEuMTUyLTMuNDk4NjY3LTEuMTk0NjY3LTMuNDU2LTEuMzIyNjY3LTMuMzcwNjY2LTEuMzY1MzMzLTMuMzcwNjY3LTEuNDUwNjY3LTMuMzI4LTEuNTM2LTMuMjg1MzMzLTEuNjIxMzMzLTMuMjQyNjY3LTEuNjY0LTMuMi0xLjc0OTMzMy0zLjExNDY2Ny0xLjgzNDY2Ny0zLjExNDY2Ni0xLjkyLTMuMDcyLTIuMDA1MzMzLTIuOTg2NjY3LTIuMDQ4LTIuOTg2NjY3LTIuMDkwNjY3LTIuOTAxMzMzLTIuMjE4NjY3LTIuODU4NjY3LTIuMjE4NjY2LTIuNzczMzMzLTIuMzQ2NjY3LTIuNzMwNjY3LTIuMzg5MzMzLTIuNjg4LTIuNDMyLTIuNjQ1MzMzLTIuNTE3MzM0LTIuNTYtMi41Ni0yLjUxNzMzMy0yLjY0NTMzMy0yLjQzMi0yLjY4OC0yLjM4OTMzNC0yLjczMDY2Ny0yLjM0NjY2Ni0yLjc3MzMzMy0yLjIxODY2Ny0yLjg1ODY2Ny0yLjIxODY2Ny0yLjkwMTMzMy0yLjA5MDY2Ni0yLjk4NjY2Ny0yLjA0OC0yLjk4NjY2Ni0yLjAwNTMzNC0zLjA3Mi0xLjkyLTMuMTE0NjY3LTEuODM0NjY2LTMuMTE0NjY3LTEuNzQ5MzM0LTMuMi0xLjY2NC0zLjI0MjY2Ni0xLjYyMTMzMy0zLjI4NTMzNC0xLjUzNi0zLjMyOC0xLjQ1MDY2Ny0zLjM3MDY2Ni0xLjM2NTMzMy0zLjQxMzMzNC0xLjMyMjY2Ny0zLjQxMzMzMy0xLjE5NDY2Ni0zLjQ5ODY2Ny0xLjE1Mi0zLjQ5ODY2Ni0xLjAyNC0zLjU0MTMzNC0wLjk4MTMzNC0zLjU4NC0wLjg1MzMzMy0zLjYyNjY2Ni0wLjgxMDY2Ny0zLjY2OTMzNC0wLjY4MjY2Ni0zLjY2OTMzMy0wLjY0LTMuNzEyLTAuNTEyLTMuNzU0NjY3LTAuNDI2NjY3LTMuNzk3MzMzLTAuMzQxMzMzLTMuNzk3MzMzLTAuMjEzMzM0LTMuODQtMC4xNzA2NjZMODMxLjkxNDY2NyAzODRsLTIuODE2IDAuMDQyNjY3LTIuODU4NjY3IDAuMDg1MzMzLTIuODU4NjY3IDAuMTI4LTIuODU4NjY2IDAuMTcwNjY3LTIuODE2IDAuMjU2LTIuODE2IDAuMjk4NjY2LTIuNzczMzM0IDAuMzQxMzM0LTIuNzczMzMzIDAuMzg0LTIuNzczMzMzIDAuNDY5MzMzLTIuNzMwNjY3IDAuNDY5MzMzLTIuNzMwNjY3IDAuNTU0NjY3LTIuNjg4IDAuNTk3MzMzLTIuNjg4IDAuNjQtMi42NDUzMzMgMC42ODI2NjctMi42NDUzMzMgMC43MjUzMzMtMi42NDUzMzQgMC44MTA2NjctMi42MDI2NjYgMC44MTA2NjctMi41NiAwLjg5Ni0yLjU2IDAuOTM4NjY2LTIuNTYgMC45Mzg2NjctMi41MTczMzQgMS4wMjQtMi40NzQ2NjYgMS4wNjY2NjctMi40NzQ2NjcgMS4xMDkzMzMtMi40MzIgMS4xNTItMi40MzIgMS4xOTQ2NjctMi40MzIgMS4yMzczMzMtMi4zNDY2NjcgMS4yMzczMzMtMi4zNDY2NjYgMS4zMjI2NjctMi4zNDY2NjcgMS4zNjUzMzMtMi4zMDQgMS40MDgtMi4yNjEzMzMgMS40NTA2NjctMi41NiAxLjY2NC0zLjQ5ODY2NyAyLjA5MDY2Ny0zLjYyNjY2NyAxLjcwNjY2Ni0zLjg0IDEuMzY1MzM0LTMuOTI1MzMzIDEuMDI0LTMuOTY4IDAuNTk3MzMzLTQuMDUzMzMzIDAuMjU2LTQuMDUzMzM0LTAuMTI4LTQuMDEwNjY2LTAuNTEyLTMuOTY4LTAuODk2LTMuODQtMS4yOC0zLjcxMi0xLjYyMTMzMy0zLjQ5ODY2Ny0yLjAwNTMzNC0zLjMyOC0yLjMwNC0zLjExNDY2Ny0yLjYwMjY2Ni0yLjg1ODY2Ni0yLjg1ODY2Ny0yLjUxNzMzNC0zLjE1NzMzMy0yLjI2MTMzMy0zLjM3MDY2Ny0xLjkyLTMuNTg0LTEuNTc4NjY3LTMuNzEyLTEuMTk0NjY2LTMuODgyNjY3LTAuODEwNjY3LTMuOTI1MzMzLTAuNDY5MzMzLTQuMDUzMzMzLTAuMDg1MzM0LTQuMDUzMzM0IDAuMTcwNjY3LTUuMTIgMC4wNDI2NjctNC44NjR2LTIuOTQ0bC0wLjA4NTMzNC0zLjAyOTMzMy0wLjA4NTMzMy0zLjAyOTMzMy0wLjEyOC0zLjAyOTMzNC0wLjE3MDY2Ny0yLjk4NjY2Ni0wLjIxMzMzMy0yLjk4NjY2Ny0wLjI1Ni0yLjk4NjY2Ny0wLjI1Ni0yLjk0NC0wLjM0MTMzMy0yLjk0NC0wLjM0MTMzNC0yLjk0NC0wLjM4NC0yLjk0NC0wLjQyNjY2Ni0yLjkwMTMzMy0wLjQ2OTMzNC0yLjkwMTMzMy0wLjUxMi0yLjkwMTMzNC0wLjU1NDY2Ni0yLjg1ODY2Ni0wLjU1NDY2Ny0yLjkwMTMzNC0wLjU5NzMzMy0yLjgxNi0wLjY0LTIuODU4NjY2LTAuNjgyNjY3LTIuODE2LTAuNjgyNjY3LTIuODE2LTAuNzY4LTIuODE2LTAuNzY4LTIuNzczMzM0LTAuODEwNjY2LTIuNzczMzMzLTAuODEwNjY3LTIuNzczMzMzLTAuODk2LTIuNzMwNjY3LTAuODk2LTIuNzMwNjY3LTAuOTM4NjY3LTIuNzMwNjY2LTAuOTgxMzMzLTIuNjg4LTAuOTgxMzMzLTIuNjg4LTEuMDI0LTIuNjQ1MzM0LTEuMDY2NjY3LTIuNjg4LTEuMTA5MzMzLTIuNjAyNjY2LTEuMTA5MzM0LTIuNjQ1MzM0LTEuMTk0NjY2LTIuNjAyNjY2LTEuMTk0NjY3LTIuNTYtMS4xOTQ2NjctMi42MDI2NjctMS4yMzczMzMtMi41Ni0xLjMyMjY2Ny0yLjUxNzMzMy0xLjI4LTIuNTE3MzM0LTEuMzY1MzMzLTIuNTE3MzMzLTEuMzY1MzMzLTIuNDc0NjY3LTEuNDA4LTIuNDc0NjY2LTEuNDA4LTIuNDMyLTEuNDUwNjY3LTIuNDMyLTEuNDkzMzMzLTIuMzg5MzM0LTEuNDkzMzM0LTIuMzg5MzMzLTEuNTc4NjY2LTIuMzg5MzMzLTEuNTM2LTIuMzQ2NjY3LTEuNjIxMzM0LTIuMzQ2NjY3LTEuNjIxMzMzLTIuMzA0LTEuNjIxMzMzLTIuMzA0LTEuNzA2NjY3LTIuMjYxMzMzLTEuNzA2NjY3LTIuMjYxMzMzLTEuNzA2NjY2LTIuMjE4NjY3LTEuNzQ5MzM0LTIuMjE4NjY3LTEuNzkyLTIuMTc2LTEuODM0NjY2LTIuMTc2LTEuODM0NjY3LTIuMTMzMzMzLTEuODM0NjY3LTIuMTMzMzMzLTEuODc3MzMzLTIuMDkwNjY3LTEuOTItMi4wOTA2NjctMS45Mi0yLjA0OC0xLjk2MjY2Ny0yLjAwNTMzMy0yLjAwNTMzMy0yLjAwNTMzMy0yLjAwNTMzMy0yLjAwNTMzNC0yLjAwNTMzNC0xLjk2MjY2Ni0yLjA0OC0xLjkyLTIuMDkwNjY2LTEuOTItMi4wOTA2NjctMS44NzczMzQtMi4xMzMzMzMtMS44MzQ2NjYtMi4xMzMzMzQtMS44MzQ2NjctMi4xNzYtMS44MzQ2NjctMi4xNzYtMS43NDkzMzMtMi4yMTg2NjYtMS43OTItMi4yMTg2NjctMS43MDY2NjctMi4yNjEzMzMtMS43MDY2NjYtMi4yNjEzMzQtMS43MDY2NjctMi4zMDQtMS42MjEzMzMtMi4zMDQtMS42MjEzMzQtMi4zNDY2NjYtMS42MjEzMzMtMi4zNDY2NjctMS41Nzg2NjctMi4zODkzMzMtMS41MzYtMi4zODkzMzQtMS40OTMzMzMtMi4zODkzMzMtMS40OTMzMzMtMi40MzItMS40NTA2NjctMi40MzItMS40MDgtMi40NzQ2NjctMS40MDgtMi40NzQ2NjYtMS4zNjUzMzMtMi41MTczMzQtMS4zNjUzMzQtMi41MTczMzMtMS4zMjI2NjYtMi41MTczMzMtMS4yOC0yLjU2LTEuMjM3MzM0LTIuNjAyNjY3LTEuMTk0NjY2LTIuNTYtMS4xOTQ2NjctMi42MDI2NjctMS4xNTItMi42NDUzMzMtMS4xNTItMi42NDUzMzMtMS4xMDkzMzMtMi42NDUzMzQtMS4wNjY2NjctMi42NDUzMzMtMS4wMjQtMi42ODgtMC45ODEzMzMtMi42ODgtMC45ODEzMzQtMi43MzA2NjctMC45Mzg2NjYtMi43MzA2NjYtMC44OTYtMi43MzA2NjctMC44OTYtMi43NzMzMzMtMC44MTA2NjctMi43NzMzMzQtMC44MTA2NjctMi43NzMzMzMtMC43NjgtMi44MTYtMC43NjgtMi44MTYtMC42ODI2NjYtMi44MTYtMC42ODI2NjctMi44NTg2NjctMC42NC0yLjgxNi0wLjU5NzMzMy0yLjkwMTMzMy0wLjU1NDY2Ny0yLjg1ODY2Ny0wLjU1NDY2Ny0yLjkwMTMzMy0wLjUxMi0yLjkwMTMzMy0wLjQ2OTMzMy0yLjkwMTMzNC0wLjQyNjY2Ny0yLjk0NC0wLjM4NC0yLjk0NC0wLjM0MTMzMy0yLjk0NC0wLjM0MTMzMy0yLjk0NC0wLjI1Ni0yLjk4NjY2Ni0wLjI1Ni0yLjk4NjY2Ny0wLjIxMzMzNC0yLjk4NjY2Ny0wLjE3MDY2Ni0zLjAyOTMzMy0wLjEyOC0zLjAyOTMzMy0wLjA4NTMzNEw0NTEuMDI5MzMzIDEyOGgtNS42NzQ2NjZ6Ii8+PHBhdGggZmlsbD0iIzhFQ0RGRiIgZD0iTTg1Ljc2IDU3NmEyMS4zMzMzMzMgMjEuMTIgOTAgMSAwIDQyLjI0IDAgMjEuMzMzMzMzIDIxLjEyIDkwIDEgMC00Mi4yNCAwWiIvPjxwYXRoIGZpbGw9IiNGRkU5N0MiIGQ9Ik01OTcuMzMzMzMzIDY0MGwtMTQ4LjU2NTMzMyAxMTEuNDQ1MzMzYTE3LjA2NjY2NyAxNy4wNjY2NjcgMCAwIDAgMi42MDI2NjcgMjguODg1MzM0bDQzLjM0OTMzMyAyMS42NzQ2NjZhMTcuMTk0NjY3IDE3LjE5NDY2NyAwIDAgMSA2LjU3MDY2NyAyNC43NDY2NjdMNDI2LjY2NjY2NyA5MzguNjY2NjY3bDE0OC41NjUzMzMtMTExLjQ0NTMzNGExNy4wNjY2NjcgMTcuMDY2NjY3IDAgMCAwLTIuNjAyNjY3LTI4Ljg4NTMzM2wtNDMuMzQ5MzMzLTIxLjY3NDY2N2ExNy4xOTQ2NjcgMTcuMTk0NjY3IDAgMCAxLTYuNTcwNjY3LTI0Ljc0NjY2Nkw1OTcuMzMzMzMzIDY0MHoiLz48cGF0aCBmaWxsPSIjOEVDREZGIiBkPSJNMjg4IDc3Ni41NzZzNy4wODI2NjcgNzMuMDQ1MzMzLTUuNzE3MzMzIDk1LjIzMmE0Mi42NjY2NjcgNDIuNjY2NjY3IDAgMCAxLTczLjg5ODY2Ny00Mi42NjY2NjdjMTIuOC0yMi4xODY2NjcgNzkuNjE2LTUyLjU2NTMzMyA3OS42MTYtNTIuNTY1MzMzek04MDAgNzc2LjU3NnM3LjA4MjY2NyA3My4wNDUzMzMtNS43MTczMzMgOTUuMjMyYTQyLjY2NjY2NyA0Mi42NjY2NjcgMCAwIDEtNzMuODk4NjY3LTQyLjY2NjY2N2MxMi44LTIyLjE4NjY2NyA3OS42MTYtNTIuNTY1MzMzIDc5LjYxNi01Mi41NjUzMzN6Ii8+PC9zdmc+" vertex="1" parent="1">
          <mxGeometry x="840" y="150" width="60" height="60" as="geometry" />
        </mxCell>
        <mxCell id="ImgrcDbzpY2Wqn9-QAdL-10" value="" style="shape=image;verticalLabelPosition=bottom;verticalAlign=top;imageAspect=0;aspect=fixed;image=data:image/svg+xml,PHN2ZyB4bWxuczp4bGluaz0iaHR0cDovL3d3dy53My5vcmcvMTk5OS94bGluayIgeG1sbnM9Imh0dHA6Ly93d3cudzMub3JnLzIwMDAvc3ZnIiBoZWlnaHQ9IjI1NiIgd2lkdGg9IjI1NiIgdmVyc2lvbj0iMS4xIiB2aWV3Qm94PSIwIDAgMTAyNCAxMDI0IiBjbGFzcz0iaWNvbiI+PHBhdGggZmlsbD0iIzMyQzVGRiIgZD0iTTQ4NS4xMiA5NTYuOTI4YzE5Ny4zMTIgMCAzNTcuMTg0LTE0Ny4zMjggMzU3LjE4NC0zMjguOTYgMC0xMjEuMTUyLTExOS4wNC0zMDkuMTItMzU3LjEyLTU2My45NjhDMjQ3LjA0IDMxOC43ODQgMTI4IDUwNi44OCAxMjggNjI3LjkwNGMwIDE4MS43NiAxNTkuODcyIDMyOC45NiAzNTcuMTIgMzI4Ljk2eiIvPjwvc3ZnPg==" vertex="1" parent="1">
          <mxGeometry x="811" y="247" width="16" height="16" as="geometry" />
        </mxCell>
        <mxCell id="ImgrcDbzpY2Wqn9-QAdL-12" value="" style="shape=image;verticalLabelPosition=bottom;verticalAlign=top;imageAspect=0;aspect=fixed;image=data:image/svg+xml,PHN2ZyB4bWxuczp4bGluaz0iaHR0cDovL3d3dy53My5vcmcvMTk5OS94bGluayIgeG1sbnM9Imh0dHA6Ly93d3cudzMub3JnLzIwMDAvc3ZnIiBoZWlnaHQ9IjI1NiIgd2lkdGg9IjI1NiIgdmVyc2lvbj0iMS4xIiB2aWV3Qm94PSIwIDAgMTAyNCAxMDI0IiBjbGFzcz0iaWNvbiI+PHBhdGggZmlsbD0iIzMyQzVGRiIgZD0iTTQ4NS4xMiA5NTYuOTI4YzE5Ny4zMTIgMCAzNTcuMTg0LTE0Ny4zMjggMzU3LjE4NC0zMjguOTYgMC0xMjEuMTUyLTExOS4wNC0zMDkuMTItMzU3LjEyLTU2My45NjhDMjQ3LjA0IDMxOC43ODQgMTI4IDUwNi44OCAxMjggNjI3LjkwNGMwIDE4MS43NiAxNTkuODcyIDMyOC45NiAzNTcuMTIgMzI4Ljk2eiIvPjwvc3ZnPg==" vertex="1" parent="1">
          <mxGeometry x="890" y="330" width="16" height="16" as="geometry" />
        </mxCell>
        <mxCell id="ImgrcDbzpY2Wqn9-QAdL-13" value="" style="shape=image;verticalLabelPosition=bottom;verticalAlign=top;imageAspect=0;aspect=fixed;image=data:image/svg+xml,PHN2ZyB4bWxuczp4bGluaz0iaHR0cDovL3d3dy53My5vcmcvMTk5OS94bGluayIgeG1sbnM9Imh0dHA6Ly93d3cudzMub3JnLzIwMDAvc3ZnIiBoZWlnaHQ9IjI1NiIgd2lkdGg9IjI1NiIgdmVyc2lvbj0iMS4xIiB2aWV3Qm94PSIwIDAgMTAyNCAxMDI0IiBjbGFzcz0iaWNvbiI+PHBhdGggZmlsbD0iIzMyQzVGRiIgZD0iTTQ4NS4xMiA5NTYuOTI4YzE5Ny4zMTIgMCAzNTcuMTg0LTE0Ny4zMjggMzU3LjE4NC0zMjguOTYgMC0xMjEuMTUyLTExOS4wNC0zMDkuMTItMzU3LjEyLTU2My45NjhDMjQ3LjA0IDMxOC43ODQgMTI4IDUwNi44OCAxMjggNjI3LjkwNGMwIDE4MS43NiAxNTkuODcyIDMyOC45NiAzNTcuMTIgMzI4Ljk2eiIvPjwvc3ZnPg==" vertex="1" parent="1">
          <mxGeometry x="824" y="294" width="16" height="16" as="geometry" />
        </mxCell>
        <mxCell id="ImgrcDbzpY2Wqn9-QAdL-14" value="" style="shape=image;verticalLabelPosition=bottom;verticalAlign=top;imageAspect=0;aspect=fixed;image=data:image/svg+xml,PHN2ZyB4bWxuczp4bGluaz0iaHR0cDovL3d3dy53My5vcmcvMTk5OS94bGluayIgeG1sbnM9Imh0dHA6Ly93d3cudzMub3JnLzIwMDAvc3ZnIiBoZWlnaHQ9IjI1NiIgd2lkdGg9IjI1NiIgdmVyc2lvbj0iMS4xIiB2aWV3Qm94PSIwIDAgMTAyNCAxMDI0IiBjbGFzcz0iaWNvbiI+PHBhdGggZmlsbD0iIzMyQzVGRiIgZD0iTTQ4NS4xMiA5NTYuOTI4YzE5Ny4zMTIgMCAzNTcuMTg0LTE0Ny4zMjggMzU3LjE4NC0zMjguOTYgMC0xMjEuMTUyLTExOS4wNC0zMDkuMTItMzU3LjEyLTU2My45NjhDMjQ3LjA0IDMxOC43ODQgMTI4IDUwNi44OCAxMjggNjI3LjkwNGMwIDE4MS43NiAxNTkuODcyIDMyOC45NiAzNTcuMTIgMzI4Ljk2eiIvPjwvc3ZnPg==" vertex="1" parent="1">
          <mxGeometry x="884" y="224" width="16" height="16" as="geometry" />
        </mxCell>
        <mxCell id="ImgrcDbzpY2Wqn9-QAdL-15" value="" style="shape=image;verticalLabelPosition=bottom;verticalAlign=top;imageAspect=0;aspect=fixed;image=data:image/svg+xml,PHN2ZyB4bWxuczp4bGluaz0iaHR0cDovL3d3dy53My5vcmcvMTk5OS94bGluayIgeG1sbnM9Imh0dHA6Ly93d3cudzMub3JnLzIwMDAvc3ZnIiBoZWlnaHQ9IjI1NiIgd2lkdGg9IjI1NiIgdmVyc2lvbj0iMS4xIiB2aWV3Qm94PSIwIDAgMTAyNCAxMDI0IiBjbGFzcz0iaWNvbiI+PHBhdGggZmlsbD0iIzMyQzVGRiIgZD0iTTQ4NS4xMiA5NTYuOTI4YzE5Ny4zMTIgMCAzNTcuMTg0LTE0Ny4zMjggMzU3LjE4NC0zMjguOTYgMC0xMjEuMTUyLTExOS4wNC0zMDkuMTItMzU3LjEyLTU2My45NjhDMjQ3LjA0IDMxOC43ODQgMTI4IDUwNi44OCAxMjggNjI3LjkwNGMwIDE4MS43NiAxNTkuODcyIDMyOC45NiAzNTcuMTIgMzI4Ljk2eiIvPjwvc3ZnPg==" vertex="1" parent="1">
          <mxGeometry x="795" y="330" width="16" height="16" as="geometry" />
        </mxCell>
        <mxCell id="ImgrcDbzpY2Wqn9-QAdL-16" value="" style="shape=image;verticalLabelPosition=bottom;verticalAlign=top;imageAspect=0;aspect=fixed;image=data:image/svg+xml,PHN2ZyB4bWxuczp4bGluaz0iaHR0cDovL3d3dy53My5vcmcvMTk5OS94bGluayIgeG1sbnM9Imh0dHA6Ly93d3cudzMub3JnLzIwMDAvc3ZnIiBoZWlnaHQ9IjI1NiIgd2lkdGg9IjI1NiIgdmVyc2lvbj0iMS4xIiB2aWV3Qm94PSIwIDAgMTAyNCAxMDI0IiBjbGFzcz0iaWNvbiI+PHBhdGggZmlsbD0iIzMyQzVGRiIgZD0iTTQ4NS4xMiA5NTYuOTI4YzE5Ny4zMTIgMCAzNTcuMTg0LTE0Ny4zMjggMzU3LjE4NC0zMjguOTYgMC0xMjEuMTUyLTExOS4wNC0zMDkuMTItMzU3LjEyLTU2My45NjhDMjQ3LjA0IDMxOC43ODQgMTI4IDUwNi44OCAxMjggNjI3LjkwNGMwIDE4MS43NiAxNTkuODcyIDMyOC45NiAzNTcuMTIgMzI4Ljk2eiIvPjwvc3ZnPg==" vertex="1" parent="1">
          <mxGeometry x="844" y="238" width="16" height="16" as="geometry" />
        </mxCell>
        <mxCell id="ImgrcDbzpY2Wqn9-QAdL-17" value="" style="shape=image;verticalLabelPosition=bottom;verticalAlign=top;imageAspect=0;aspect=fixed;image=data:image/svg+xml,PHN2ZyB4bWxuczp4bGluaz0iaHR0cDovL3d3dy53My5vcmcvMTk5OS94bGluayIgeG1sbnM9Imh0dHA6Ly93d3cudzMub3JnLzIwMDAvc3ZnIiBoZWlnaHQ9IjI1NiIgd2lkdGg9IjI1NiIgdmVyc2lvbj0iMS4xIiB2aWV3Qm94PSIwIDAgMTAyNCAxMDI0IiBjbGFzcz0iaWNvbiI+PHBhdGggZmlsbD0iIzhERDJGQyIgZD0iTTUwNi42NyA1MjBoLTMzLjI2Yy0wLjk5IDAtMS43OS0wLjgtMS43OS0xLjc5VjEyNS43OWMwLTAuOTkgMC44LTEuNzkgMS43OS0xLjc5aDMzLjI2YzAuOTkgMCAxLjc5IDAuOCAxLjc5IDEuNzl2MzkyLjQyYzAgMC45OS0wLjggMS43OS0xLjc5IDEuNzl6Ii8+PHBhdGggZmlsbD0iIzhERDJGQyIgZD0iTTUwMy4yNCAyOTMuMjdsLTIzLjUyIDIzLjUyYy0wLjcgMC43LTEuODMgMC43LTIuNTMgMEwzNzUuNTMgMjE1LjEyYy0wLjctMC43LTAuNy0xLjgzIDAtMi41M2wyMy41Mi0yMy41MmMwLjctMC43IDEuODMtMC43IDIuNTMgMGwxMDEuNjYgMTAxLjY2YzAuNyAwLjcxIDAuNyAxLjg0IDAgMi41NHoiLz48cGF0aCBmaWxsPSIjOEREMkZDIiBkPSJNNDc2Ljg0IDI5My4yN2wyMy41MiAyMy41MmMwLjcgMC43IDEuODMgMC43IDIuNTMgMGwxMDEuNjYtMTAxLjY2YzAuNy0wLjcgMC43LTEuODMgMC0yLjUzbC0yMy41Mi0yMy41MmMtMC43LTAuNy0xLjgzLTAuNy0yLjUzIDBMNDc2Ljg0IDI5MC43NGMtMC43IDAuNy0wLjcgMS44MyAwIDIuNTN6TTQ5OC4zNSA1MDUuNmwtMTYuNjMgMjguOGMtMC40OSAwLjg2LTEuNTkgMS4xNS0yLjQ1IDAuNjZMMTM5LjQzIDMzOC44NWExLjc5NiAxLjc5NiAwIDAgMS0wLjY2LTIuNDVsMTYuNjMtMjguOGMwLjQ5LTAuODYgMS41OS0xLjE1IDIuNDUtMC42Nkw0OTcuNyA1MDMuMTVjMC44NSAwLjUgMS4xNSAxLjU5IDAuNjUgMi40NXoiLz48cGF0aCBmaWxsPSIjOEREMkZDIiBkPSJNMzAwLjI4IDM5NS4ybDguNjEgMzIuMTJjMC4yNiAwLjk2LTAuMzEgMS45NC0xLjI3IDIuMTlsLTEzOC44NyAzNy4yMWMtMC45NiAwLjI2LTEuOTQtMC4zMS0yLjE5LTEuMjdsLTguNjEtMzIuMTJjLTAuMjYtMC45NiAwLjMxLTEuOTQgMS4yNy0yLjE5bDEzOC44Ny0zNy4yMWMwLjk2LTAuMjUgMS45NCAwLjMyIDIuMTkgMS4yN3oiLz48cGF0aCBmaWxsPSIjOEREMkZDIiBkPSJNMjg3LjA4IDQxOC4wN2wzMi4xMi04LjYxYzAuOTYtMC4yNiAxLjUyLTEuMjQgMS4yNy0yLjE5TDI4My4yNiAyNjguNGExLjc5NSAxLjc5NSAwIDAgMC0yLjE5LTEuMjdsLTMyLjEyIDguNjFjLTAuOTYgMC4yNi0xLjUyIDEuMjQtMS4yNyAyLjE5bDM3LjIxIDEzOC44N2ExLjc5IDEuNzkgMCAwIDAgMi4xOSAxLjI3eiIvPjxwYXRoIGZpbGw9IiM4REQyRkMiIGQ9Ik00ODEuNzIgNTA1LjZsMTYuNjMgMjguOGMwLjQ5IDAuODYgMC4yIDEuOTUtMC42NiAyLjQ1TDE1Ny44NSA3MzMuMDZjLTAuODYgMC40OS0xLjk1IDAuMi0yLjQ1LTAuNjZsLTE2LjYzLTI4LjhjLTAuNDktMC44Ni0wLjItMS45NSAwLjY2LTIuNDVsMzM5Ljg0LTE5Ni4yMWMwLjg3LTAuNDkgMS45Ni0wLjIgMi40NSAwLjY2eiIvPjxwYXRoIGZpbGw9IiM4REQyRkMiIGQ9Ik0yODcuMDggNjIxLjkzbDMyLjEyIDguNjFjMC45NiAwLjI2IDEuNTIgMS4yNCAxLjI3IDIuMTlMMjgzLjI2IDc3MS42Yy0wLjI2IDAuOTYtMS4yNCAxLjUyLTIuMTkgMS4yN2wtMzIuMTItOC42MWExLjc5NSAxLjc5NSAwIDAgMS0xLjI3LTIuMTlsMzcuMjEtMTM4Ljg3YTEuNzkgMS43OSAwIDAgMSAyLjE5LTEuMjd6Ii8+PHBhdGggZmlsbD0iIzhERDJGQyIgZD0iTTMwMC4yOCA2NDQuOGw4LjYxLTMyLjEyYzAuMjYtMC45Ni0wLjMxLTEuOTQtMS4yNy0yLjE5bC0xMzguODctMzcuMjFjLTAuOTYtMC4yNi0xLjk0IDAuMzEtMi4xOSAxLjI3bC04LjYxIDMyLjEyYy0wLjI2IDAuOTYgMC4zMSAxLjk0IDEuMjcgMi4xOWwxMzguODcgMzcuMjFjMC45NiAwLjI1IDEuOTQtMC4zMiAyLjE5LTEuMjd6Ii8+PHBhdGggZmlsbD0iIzhERDJGQyIgZD0iTTQ3My40MSA1MjBoMzMuMjZjMC45OSAwIDEuNzkgMC44IDEuNzkgMS43OXYzOTIuNDJjMCAwLjk5LTAuOCAxLjc5LTEuNzkgMS43OWgtMzMuMjZjLTAuOTkgMC0xLjc5LTAuOC0xLjc5LTEuNzlWNTIxLjc5YzAtMC45OSAwLjgtMS43OSAxLjc5LTEuNzl6Ii8+PHBhdGggZmlsbD0iIzhERDJGQyIgZD0iTTQ3Ni44NCA3NDYuNzNsMjMuNTItMjMuNTJjMC43LTAuNyAxLjgzLTAuNyAyLjUzIDBsMTAxLjY2IDEwMS42NmMwLjcgMC43IDAuNyAxLjgzIDAgMi41M2wtMjMuNTIgMjMuNTJjLTAuNyAwLjctMS44MyAwLjctMi41MyAwTDQ3Ni44NCA3NDkuMjZjLTAuNy0wLjctMC43LTEuODMgMC0yLjUzeiIvPjxwYXRoIGZpbGw9IiM4REQyRkMiIGQ9Ik01MDMuMjQgNzQ2LjczbC0yMy41Mi0yMy41MmMtMC43LTAuNy0xLjgzLTAuNy0yLjUzIDBMMzc1LjUzIDgyNC44OGMtMC43IDAuNy0wLjcgMS44MyAwIDIuNTNsMjMuNTIgMjMuNTJjMC43IDAuNyAxLjgzIDAuNyAyLjUzIDBsMTAxLjY2LTEwMS42NmMwLjctMC43MSAwLjctMS44NCAwLTIuNTR6Ii8+PHBhdGggZmlsbD0iIzhERDJGQyIgZD0iTTQ4MS43MiA1MzQuNGwxNi42My0yOC44YzAuNDktMC44NiAxLjU5LTEuMTUgMi40NS0wLjY2bDMzOS44NCAxOTYuMjFjMC44NiAwLjQ5IDEuMTUgMS41OSAwLjY2IDIuNDVsLTE2LjYzIDI4LjhjLTAuNDkgMC44Ni0xLjU5IDEuMTUtMi40NSAwLjY2TDQ4Mi4zOCA1MzYuODVjLTAuODYtMC41LTEuMTUtMS41OS0wLjY2LTIuNDV6Ii8+PHBhdGggZmlsbD0iIzhERDJGQyIgZD0iTTY3OS43OSA2NDQuOGwtOC42MS0zMi4xMmMtMC4yNi0wLjk2IDAuMzEtMS45NCAxLjI3LTIuMTlsMTM4Ljg3LTM3LjIxYzAuOTYtMC4yNiAxLjk0IDAuMzEgMi4xOSAxLjI3bDguNjEgMzIuMTJjMC4yNiAwLjk2LTAuMzEgMS45NC0xLjI3IDIuMTlsLTEzOC44NyAzNy4yMWMtMC45NSAwLjI1LTEuOTMtMC4zMi0yLjE5LTEuMjd6Ii8+PHBhdGggZmlsbD0iIzhERDJGQyIgZD0iTTY5MyA2MjEuOTNsLTMyLjEyIDguNjFjLTAuOTYgMC4yNi0xLjUyIDEuMjQtMS4yNyAyLjE5bDM3LjIxIDEzOC44N2MwLjI2IDAuOTYgMS4yNCAxLjUyIDIuMTkgMS4yN2wzMi4xMi04LjYxYzAuOTYtMC4yNiAxLjUyLTEuMjQgMS4yNy0yLjE5TDY5NS4xOSA2MjMuMmExLjc5NSAxLjc5NSAwIDAgMC0yLjE5LTEuMjd6Ii8+PHBhdGggZmlsbD0iIzhERDJGQyIgZD0iTTQ5OC4zNSA1MzQuNGwtMTYuNjMtMjguOGMtMC40OS0wLjg2LTAuMi0xLjk1IDAuNjYtMi40NWwzMzkuODQtMTk2LjIxYzAuODYtMC40OSAxLjk1LTAuMiAyLjQ1IDAuNjZsMTYuNjMgMjguOGMwLjQ5IDAuODYgMC4yIDEuOTUtMC42NiAyLjQ1TDUwMC44IDUzNS4wNmMtMC44NiAwLjQ5LTEuOTUgMC4yLTIuNDUtMC42NnoiLz48cGF0aCBmaWxsPSIjOEREMkZDIiBkPSJNNjkzIDQxOC4wN2wtMzIuMTItOC42MWExLjc5NSAxLjc5NSAwIDAgMS0xLjI3LTIuMTlsMzcuMjEtMTM4Ljg3YzAuMjYtMC45NiAxLjI0LTEuNTIgMi4xOS0xLjI3bDMyLjEyIDguNjFjMC45NiAwLjI2IDEuNTIgMS4yNCAxLjI3IDIuMTlMNjk1LjE5IDQxNi44Yy0wLjI2IDAuOTYtMS4yNCAxLjUyLTIuMTkgMS4yN3oiLz48cGF0aCBmaWxsPSIjOEREMkZDIiBkPSJNNjc5Ljc5IDM5NS4ybC04LjYxIDMyLjEyYy0wLjI2IDAuOTYgMC4zMSAxLjk0IDEuMjcgMi4xOWwxMzguODcgMzcuMjFjMC45NiAwLjI2IDEuOTQtMC4zMSAyLjE5LTEuMjdsOC42MS0zMi4xMmMwLjI2LTAuOTYtMC4zMS0xLjk0LTEuMjctMi4xOWwtMTM4Ljg3LTM3LjIxYy0wLjk1LTAuMjUtMS45MyAwLjMyLTIuMTkgMS4yN3oiLz48L3N2Zz4=" vertex="1" parent="1">
          <mxGeometry x="770" y="280" width="30" height="30" as="geometry" />
        </mxCell>
        <mxCell id="ImgrcDbzpY2Wqn9-QAdL-19" value="" style="shape=image;verticalLabelPosition=bottom;verticalAlign=top;imageAspect=0;aspect=fixed;image=data:image/svg+xml,PHN2ZyB4bWxuczp4bGluaz0iaHR0cDovL3d3dy53My5vcmcvMTk5OS94bGluayIgeG1sbnM9Imh0dHA6Ly93d3cudzMub3JnLzIwMDAvc3ZnIiBoZWlnaHQ9IjI1NiIgd2lkdGg9IjI1NiIgdmVyc2lvbj0iMS4xIiB2aWV3Qm94PSIwIDAgMTAyNCAxMDI0IiBjbGFzcz0iaWNvbiI+PHBhdGggZmlsbD0iIzhERDJGQyIgZD0iTTUwNi42NyA1MjBoLTMzLjI2Yy0wLjk5IDAtMS43OS0wLjgtMS43OS0xLjc5VjEyNS43OWMwLTAuOTkgMC44LTEuNzkgMS43OS0xLjc5aDMzLjI2YzAuOTkgMCAxLjc5IDAuOCAxLjc5IDEuNzl2MzkyLjQyYzAgMC45OS0wLjggMS43OS0xLjc5IDEuNzl6Ii8+PHBhdGggZmlsbD0iIzhERDJGQyIgZD0iTTUwMy4yNCAyOTMuMjdsLTIzLjUyIDIzLjUyYy0wLjcgMC43LTEuODMgMC43LTIuNTMgMEwzNzUuNTMgMjE1LjEyYy0wLjctMC43LTAuNy0xLjgzIDAtMi41M2wyMy41Mi0yMy41MmMwLjctMC43IDEuODMtMC43IDIuNTMgMGwxMDEuNjYgMTAxLjY2YzAuNyAwLjcxIDAuNyAxLjg0IDAgMi41NHoiLz48cGF0aCBmaWxsPSIjOEREMkZDIiBkPSJNNDc2Ljg0IDI5My4yN2wyMy41MiAyMy41MmMwLjcgMC43IDEuODMgMC43IDIuNTMgMGwxMDEuNjYtMTAxLjY2YzAuNy0wLjcgMC43LTEuODMgMC0yLjUzbC0yMy41Mi0yMy41MmMtMC43LTAuNy0xLjgzLTAuNy0yLjUzIDBMNDc2Ljg0IDI5MC43NGMtMC43IDAuNy0wLjcgMS44MyAwIDIuNTN6TTQ5OC4zNSA1MDUuNmwtMTYuNjMgMjguOGMtMC40OSAwLjg2LTEuNTkgMS4xNS0yLjQ1IDAuNjZMMTM5LjQzIDMzOC44NWExLjc5NiAxLjc5NiAwIDAgMS0wLjY2LTIuNDVsMTYuNjMtMjguOGMwLjQ5LTAuODYgMS41OS0xLjE1IDIuNDUtMC42Nkw0OTcuNyA1MDMuMTVjMC44NSAwLjUgMS4xNSAxLjU5IDAuNjUgMi40NXoiLz48cGF0aCBmaWxsPSIjOEREMkZDIiBkPSJNMzAwLjI4IDM5NS4ybDguNjEgMzIuMTJjMC4yNiAwLjk2LTAuMzEgMS45NC0xLjI3IDIuMTlsLTEzOC44NyAzNy4yMWMtMC45NiAwLjI2LTEuOTQtMC4zMS0yLjE5LTEuMjdsLTguNjEtMzIuMTJjLTAuMjYtMC45NiAwLjMxLTEuOTQgMS4yNy0yLjE5bDEzOC44Ny0zNy4yMWMwLjk2LTAuMjUgMS45NCAwLjMyIDIuMTkgMS4yN3oiLz48cGF0aCBmaWxsPSIjOEREMkZDIiBkPSJNMjg3LjA4IDQxOC4wN2wzMi4xMi04LjYxYzAuOTYtMC4yNiAxLjUyLTEuMjQgMS4yNy0yLjE5TDI4My4yNiAyNjguNGExLjc5NSAxLjc5NSAwIDAgMC0yLjE5LTEuMjdsLTMyLjEyIDguNjFjLTAuOTYgMC4yNi0xLjUyIDEuMjQtMS4yNyAyLjE5bDM3LjIxIDEzOC44N2ExLjc5IDEuNzkgMCAwIDAgMi4xOSAxLjI3eiIvPjxwYXRoIGZpbGw9IiM4REQyRkMiIGQ9Ik00ODEuNzIgNTA1LjZsMTYuNjMgMjguOGMwLjQ5IDAuODYgMC4yIDEuOTUtMC42NiAyLjQ1TDE1Ny44NSA3MzMuMDZjLTAuODYgMC40OS0xLjk1IDAuMi0yLjQ1LTAuNjZsLTE2LjYzLTI4LjhjLTAuNDktMC44Ni0wLjItMS45NSAwLjY2LTIuNDVsMzM5Ljg0LTE5Ni4yMWMwLjg3LTAuNDkgMS45Ni0wLjIgMi40NSAwLjY2eiIvPjxwYXRoIGZpbGw9IiM4REQyRkMiIGQ9Ik0yODcuMDggNjIxLjkzbDMyLjEyIDguNjFjMC45NiAwLjI2IDEuNTIgMS4yNCAxLjI3IDIuMTlMMjgzLjI2IDc3MS42Yy0wLjI2IDAuOTYtMS4yNCAxLjUyLTIuMTkgMS4yN2wtMzIuMTItOC42MWExLjc5NSAxLjc5NSAwIDAgMS0xLjI3LTIuMTlsMzcuMjEtMTM4Ljg3YTEuNzkgMS43OSAwIDAgMSAyLjE5LTEuMjd6Ii8+PHBhdGggZmlsbD0iIzhERDJGQyIgZD0iTTMwMC4yOCA2NDQuOGw4LjYxLTMyLjEyYzAuMjYtMC45Ni0wLjMxLTEuOTQtMS4yNy0yLjE5bC0xMzguODctMzcuMjFjLTAuOTYtMC4yNi0xLjk0IDAuMzEtMi4xOSAxLjI3bC04LjYxIDMyLjEyYy0wLjI2IDAuOTYgMC4zMSAxLjk0IDEuMjcgMi4xOWwxMzguODcgMzcuMjFjMC45NiAwLjI1IDEuOTQtMC4zMiAyLjE5LTEuMjd6Ii8+PHBhdGggZmlsbD0iIzhERDJGQyIgZD0iTTQ3My40MSA1MjBoMzMuMjZjMC45OSAwIDEuNzkgMC44IDEuNzkgMS43OXYzOTIuNDJjMCAwLjk5LTAuOCAxLjc5LTEuNzkgMS43OWgtMzMuMjZjLTAuOTkgMC0xLjc5LTAuOC0xLjc5LTEuNzlWNTIxLjc5YzAtMC45OSAwLjgtMS43OSAxLjc5LTEuNzl6Ii8+PHBhdGggZmlsbD0iIzhERDJGQyIgZD0iTTQ3Ni44NCA3NDYuNzNsMjMuNTItMjMuNTJjMC43LTAuNyAxLjgzLTAuNyAyLjUzIDBsMTAxLjY2IDEwMS42NmMwLjcgMC43IDAuNyAxLjgzIDAgMi41M2wtMjMuNTIgMjMuNTJjLTAuNyAwLjctMS44MyAwLjctMi41MyAwTDQ3Ni44NCA3NDkuMjZjLTAuNy0wLjctMC43LTEuODMgMC0yLjUzeiIvPjxwYXRoIGZpbGw9IiM4REQyRkMiIGQ9Ik01MDMuMjQgNzQ2LjczbC0yMy41Mi0yMy41MmMtMC43LTAuNy0xLjgzLTAuNy0yLjUzIDBMMzc1LjUzIDgyNC44OGMtMC43IDAuNy0wLjcgMS44MyAwIDIuNTNsMjMuNTIgMjMuNTJjMC43IDAuNyAxLjgzIDAuNyAyLjUzIDBsMTAxLjY2LTEwMS42NmMwLjctMC43MSAwLjctMS44NCAwLTIuNTR6Ii8+PHBhdGggZmlsbD0iIzhERDJGQyIgZD0iTTQ4MS43MiA1MzQuNGwxNi42My0yOC44YzAuNDktMC44NiAxLjU5LTEuMTUgMi40NS0wLjY2bDMzOS44NCAxOTYuMjFjMC44NiAwLjQ5IDEuMTUgMS41OSAwLjY2IDIuNDVsLTE2LjYzIDI4LjhjLTAuNDkgMC44Ni0xLjU5IDEuMTUtMi40NSAwLjY2TDQ4Mi4zOCA1MzYuODVjLTAuODYtMC41LTEuMTUtMS41OS0wLjY2LTIuNDV6Ii8+PHBhdGggZmlsbD0iIzhERDJGQyIgZD0iTTY3OS43OSA2NDQuOGwtOC42MS0zMi4xMmMtMC4yNi0wLjk2IDAuMzEtMS45NCAxLjI3LTIuMTlsMTM4Ljg3LTM3LjIxYzAuOTYtMC4yNiAxLjk0IDAuMzEgMi4xOSAxLjI3bDguNjEgMzIuMTJjMC4yNiAwLjk2LTAuMzEgMS45NC0xLjI3IDIuMTlsLTEzOC44NyAzNy4yMWMtMC45NSAwLjI1LTEuOTMtMC4zMi0yLjE5LTEuMjd6Ii8+PHBhdGggZmlsbD0iIzhERDJGQyIgZD0iTTY5MyA2MjEuOTNsLTMyLjEyIDguNjFjLTAuOTYgMC4yNi0xLjUyIDEuMjQtMS4yNyAyLjE5bDM3LjIxIDEzOC44N2MwLjI2IDAuOTYgMS4yNCAxLjUyIDIuMTkgMS4yN2wzMi4xMi04LjYxYzAuOTYtMC4yNiAxLjUyLTEuMjQgMS4yNy0yLjE5TDY5NS4xOSA2MjMuMmExLjc5NSAxLjc5NSAwIDAgMC0yLjE5LTEuMjd6Ii8+PHBhdGggZmlsbD0iIzhERDJGQyIgZD0iTTQ5OC4zNSA1MzQuNGwtMTYuNjMtMjguOGMtMC40OS0wLjg2LTAuMi0xLjk1IDAuNjYtMi40NWwzMzkuODQtMTk2LjIxYzAuODYtMC40OSAxLjk1LTAuMiAyLjQ1IDAuNjZsMTYuNjMgMjguOGMwLjQ5IDAuODYgMC4yIDEuOTUtMC42NiAyLjQ1TDUwMC44IDUzNS4wNmMtMC44NiAwLjQ5LTEuOTUgMC4yLTIuNDUtMC42NnoiLz48cGF0aCBmaWxsPSIjOEREMkZDIiBkPSJNNjkzIDQxOC4wN2wtMzIuMTItOC42MWExLjc5NSAxLjc5NSAwIDAgMS0xLjI3LTIuMTlsMzcuMjEtMTM4Ljg3YzAuMjYtMC45NiAxLjI0LTEuNTIgMi4xOS0xLjI3bDMyLjEyIDguNjFjMC45NiAwLjI2IDEuNTIgMS4yNCAxLjI3IDIuMTlMNjk1LjE5IDQxNi44Yy0wLjI2IDAuOTYtMS4yNCAxLjUyLTIuMTkgMS4yN3oiLz48cGF0aCBmaWxsPSIjOEREMkZDIiBkPSJNNjc5Ljc5IDM5NS4ybC04LjYxIDMyLjEyYy0wLjI2IDAuOTYgMC4zMSAxLjk0IDEuMjcgMi4xOWwxMzguODcgMzcuMjFjMC45NiAwLjI2IDEuOTQtMC4zMSAyLjE5LTEuMjdsOC42MS0zMi4xMmMwLjI2LTAuOTYtMC4zMS0xLjk0LTEuMjctMi4xOWwtMTM4Ljg3LTM3LjIxYy0wLjk1LTAuMjUtMS45MyAwLjMyLTIuMTkgMS4yN3oiLz48L3N2Zz4=" vertex="1" parent="1">
          <mxGeometry x="930" y="280" width="30" height="30" as="geometry" />
        </mxCell>
        <mxCell id="ImgrcDbzpY2Wqn9-QAdL-20" value="" style="shape=image;verticalLabelPosition=bottom;verticalAlign=top;imageAspect=0;aspect=fixed;image=data:image/svg+xml,PHN2ZyB4bWxuczp4bGluaz0iaHR0cDovL3d3dy53My5vcmcvMTk5OS94bGluayIgeG1sbnM9Imh0dHA6Ly93d3cudzMub3JnLzIwMDAvc3ZnIiBoZWlnaHQ9IjI1NiIgd2lkdGg9IjI1NiIgdmVyc2lvbj0iMS4xIiB2aWV3Qm94PSIwIDAgMTAyNCAxMDI0IiBjbGFzcz0iaWNvbiI+PHBhdGggZmlsbD0iIzhERDJGQyIgZD0iTTUwNi42NyA1MjBoLTMzLjI2Yy0wLjk5IDAtMS43OS0wLjgtMS43OS0xLjc5VjEyNS43OWMwLTAuOTkgMC44LTEuNzkgMS43OS0xLjc5aDMzLjI2YzAuOTkgMCAxLjc5IDAuOCAxLjc5IDEuNzl2MzkyLjQyYzAgMC45OS0wLjggMS43OS0xLjc5IDEuNzl6Ii8+PHBhdGggZmlsbD0iIzhERDJGQyIgZD0iTTUwMy4yNCAyOTMuMjdsLTIzLjUyIDIzLjUyYy0wLjcgMC43LTEuODMgMC43LTIuNTMgMEwzNzUuNTMgMjE1LjEyYy0wLjctMC43LTAuNy0xLjgzIDAtMi41M2wyMy41Mi0yMy41MmMwLjctMC43IDEuODMtMC43IDIuNTMgMGwxMDEuNjYgMTAxLjY2YzAuNyAwLjcxIDAuNyAxLjg0IDAgMi41NHoiLz48cGF0aCBmaWxsPSIjOEREMkZDIiBkPSJNNDc2Ljg0IDI5My4yN2wyMy41MiAyMy41MmMwLjcgMC43IDEuODMgMC43IDIuNTMgMGwxMDEuNjYtMTAxLjY2YzAuNy0wLjcgMC43LTEuODMgMC0yLjUzbC0yMy41Mi0yMy41MmMtMC43LTAuNy0xLjgzLTAuNy0yLjUzIDBMNDc2Ljg0IDI5MC43NGMtMC43IDAuNy0wLjcgMS44MyAwIDIuNTN6TTQ5OC4zNSA1MDUuNmwtMTYuNjMgMjguOGMtMC40OSAwLjg2LTEuNTkgMS4xNS0yLjQ1IDAuNjZMMTM5LjQzIDMzOC44NWExLjc5NiAxLjc5NiAwIDAgMS0wLjY2LTIuNDVsMTYuNjMtMjguOGMwLjQ5LTAuODYgMS41OS0xLjE1IDIuNDUtMC42Nkw0OTcuNyA1MDMuMTVjMC44NSAwLjUgMS4xNSAxLjU5IDAuNjUgMi40NXoiLz48cGF0aCBmaWxsPSIjOEREMkZDIiBkPSJNMzAwLjI4IDM5NS4ybDguNjEgMzIuMTJjMC4yNiAwLjk2LTAuMzEgMS45NC0xLjI3IDIuMTlsLTEzOC44NyAzNy4yMWMtMC45NiAwLjI2LTEuOTQtMC4zMS0yLjE5LTEuMjdsLTguNjEtMzIuMTJjLTAuMjYtMC45NiAwLjMxLTEuOTQgMS4yNy0yLjE5bDEzOC44Ny0zNy4yMWMwLjk2LTAuMjUgMS45NCAwLjMyIDIuMTkgMS4yN3oiLz48cGF0aCBmaWxsPSIjOEREMkZDIiBkPSJNMjg3LjA4IDQxOC4wN2wzMi4xMi04LjYxYzAuOTYtMC4yNiAxLjUyLTEuMjQgMS4yNy0yLjE5TDI4My4yNiAyNjguNGExLjc5NSAxLjc5NSAwIDAgMC0yLjE5LTEuMjdsLTMyLjEyIDguNjFjLTAuOTYgMC4yNi0xLjUyIDEuMjQtMS4yNyAyLjE5bDM3LjIxIDEzOC44N2ExLjc5IDEuNzkgMCAwIDAgMi4xOSAxLjI3eiIvPjxwYXRoIGZpbGw9IiM4REQyRkMiIGQ9Ik00ODEuNzIgNTA1LjZsMTYuNjMgMjguOGMwLjQ5IDAuODYgMC4yIDEuOTUtMC42NiAyLjQ1TDE1Ny44NSA3MzMuMDZjLTAuODYgMC40OS0xLjk1IDAuMi0yLjQ1LTAuNjZsLTE2LjYzLTI4LjhjLTAuNDktMC44Ni0wLjItMS45NSAwLjY2LTIuNDVsMzM5Ljg0LTE5Ni4yMWMwLjg3LTAuNDkgMS45Ni0wLjIgMi40NSAwLjY2eiIvPjxwYXRoIGZpbGw9IiM4REQyRkMiIGQ9Ik0yODcuMDggNjIxLjkzbDMyLjEyIDguNjFjMC45NiAwLjI2IDEuNTIgMS4yNCAxLjI3IDIuMTlMMjgzLjI2IDc3MS42Yy0wLjI2IDAuOTYtMS4yNCAxLjUyLTIuMTkgMS4yN2wtMzIuMTItOC42MWExLjc5NSAxLjc5NSAwIDAgMS0xLjI3LTIuMTlsMzcuMjEtMTM4Ljg3YTEuNzkgMS43OSAwIDAgMSAyLjE5LTEuMjd6Ii8+PHBhdGggZmlsbD0iIzhERDJGQyIgZD0iTTMwMC4yOCA2NDQuOGw4LjYxLTMyLjEyYzAuMjYtMC45Ni0wLjMxLTEuOTQtMS4yNy0yLjE5bC0xMzguODctMzcuMjFjLTAuOTYtMC4yNi0xLjk0IDAuMzEtMi4xOSAxLjI3bC04LjYxIDMyLjEyYy0wLjI2IDAuOTYgMC4zMSAxLjk0IDEuMjcgMi4xOWwxMzguODcgMzcuMjFjMC45NiAwLjI1IDEuOTQtMC4zMiAyLjE5LTEuMjd6Ii8+PHBhdGggZmlsbD0iIzhERDJGQyIgZD0iTTQ3My40MSA1MjBoMzMuMjZjMC45OSAwIDEuNzkgMC44IDEuNzkgMS43OXYzOTIuNDJjMCAwLjk5LTAuOCAxLjc5LTEuNzkgMS43OWgtMzMuMjZjLTAuOTkgMC0xLjc5LTAuOC0xLjc5LTEuNzlWNTIxLjc5YzAtMC45OSAwLjgtMS43OSAxLjc5LTEuNzl6Ii8+PHBhdGggZmlsbD0iIzhERDJGQyIgZD0iTTQ3Ni44NCA3NDYuNzNsMjMuNTItMjMuNTJjMC43LTAuNyAxLjgzLTAuNyAyLjUzIDBsMTAxLjY2IDEwMS42NmMwLjcgMC43IDAuNyAxLjgzIDAgMi41M2wtMjMuNTIgMjMuNTJjLTAuNyAwLjctMS44MyAwLjctMi41MyAwTDQ3Ni44NCA3NDkuMjZjLTAuNy0wLjctMC43LTEuODMgMC0yLjUzeiIvPjxwYXRoIGZpbGw9IiM4REQyRkMiIGQ9Ik01MDMuMjQgNzQ2LjczbC0yMy41Mi0yMy41MmMtMC43LTAuNy0xLjgzLTAuNy0yLjUzIDBMMzc1LjUzIDgyNC44OGMtMC43IDAuNy0wLjcgMS44MyAwIDIuNTNsMjMuNTIgMjMuNTJjMC43IDAuNyAxLjgzIDAuNyAyLjUzIDBsMTAxLjY2LTEwMS42NmMwLjctMC43MSAwLjctMS44NCAwLTIuNTR6Ii8+PHBhdGggZmlsbD0iIzhERDJGQyIgZD0iTTQ4MS43MiA1MzQuNGwxNi42My0yOC44YzAuNDktMC44NiAxLjU5LTEuMTUgMi40NS0wLjY2bDMzOS44NCAxOTYuMjFjMC44NiAwLjQ5IDEuMTUgMS41OSAwLjY2IDIuNDVsLTE2LjYzIDI4LjhjLTAuNDkgMC44Ni0xLjU5IDEuMTUtMi40NSAwLjY2TDQ4Mi4zOCA1MzYuODVjLTAuODYtMC41LTEuMTUtMS41OS0wLjY2LTIuNDV6Ii8+PHBhdGggZmlsbD0iIzhERDJGQyIgZD0iTTY3OS43OSA2NDQuOGwtOC42MS0zMi4xMmMtMC4yNi0wLjk2IDAuMzEtMS45NCAxLjI3LTIuMTlsMTM4Ljg3LTM3LjIxYzAuOTYtMC4yNiAxLjk0IDAuMzEgMi4xOSAxLjI3bDguNjEgMzIuMTJjMC4yNiAwLjk2LTAuMzEgMS45NC0xLjI3IDIuMTlsLTEzOC44NyAzNy4yMWMtMC45NSAwLjI1LTEuOTMtMC4zMi0yLjE5LTEuMjd6Ii8+PHBhdGggZmlsbD0iIzhERDJGQyIgZD0iTTY5MyA2MjEuOTNsLTMyLjEyIDguNjFjLTAuOTYgMC4yNi0xLjUyIDEuMjQtMS4yNyAyLjE5bDM3LjIxIDEzOC44N2MwLjI2IDAuOTYgMS4yNCAxLjUyIDIuMTkgMS4yN2wzMi4xMi04LjYxYzAuOTYtMC4yNiAxLjUyLTEuMjQgMS4yNy0yLjE5TDY5NS4xOSA2MjMuMmExLjc5NSAxLjc5NSAwIDAgMC0yLjE5LTEuMjd6Ii8+PHBhdGggZmlsbD0iIzhERDJGQyIgZD0iTTQ5OC4zNSA1MzQuNGwtMTYuNjMtMjguOGMtMC40OS0wLjg2LTAuMi0xLjk1IDAuNjYtMi40NWwzMzkuODQtMTk2LjIxYzAuODYtMC40OSAxLjk1LTAuMiAyLjQ1IDAuNjZsMTYuNjMgMjguOGMwLjQ5IDAuODYgMC4yIDEuOTUtMC42NiAyLjQ1TDUwMC44IDUzNS4wNmMtMC44NiAwLjQ5LTEuOTUgMC4yLTIuNDUtMC42NnoiLz48cGF0aCBmaWxsPSIjOEREMkZDIiBkPSJNNjkzIDQxOC4wN2wtMzIuMTItOC42MWExLjc5NSAxLjc5NSAwIDAgMS0xLjI3LTIuMTlsMzcuMjEtMTM4Ljg3YzAuMjYtMC45NiAxLjI0LTEuNTIgMi4xOS0xLjI3bDMyLjEyIDguNjFjMC45NiAwLjI2IDEuNTIgMS4yNCAxLjI3IDIuMTlMNjk1LjE5IDQxNi44Yy0wLjI2IDAuOTYtMS4yNCAxLjUyLTIuMTkgMS4yN3oiLz48cGF0aCBmaWxsPSIjOEREMkZDIiBkPSJNNjc5Ljc5IDM5NS4ybC04LjYxIDMyLjEyYy0wLjI2IDAuOTYgMC4zMSAxLjk0IDEuMjcgMi4xOWwxMzguODcgMzcuMjFjMC45NiAwLjI2IDEuOTQtMC4zMSAyLjE5LTEuMjdsOC42MS0zMi4xMmMwLjI2LTAuOTYtMC4zMS0xLjk0LTEuMjctMi4xOWwtMTM4Ljg3LTM3LjIxYy0wLjk1LTAuMjUtMS45MyAwLjMyLTIuMTkgMS4yN3oiLz48L3N2Zz4=" vertex="1" parent="1">
          <mxGeometry x="910" y="217" width="30" height="30" as="geometry" />
        </mxCell>
        <mxCell id="ImgrcDbzpY2Wqn9-QAdL-21" value="" style="shape=image;verticalLabelPosition=bottom;verticalAlign=top;imageAspect=0;aspect=fixed;image=data:image/svg+xml,PHN2ZyB4bWxuczp4bGluaz0iaHR0cDovL3d3dy53My5vcmcvMTk5OS94bGluayIgeG1sbnM9Imh0dHA6Ly93d3cudzMub3JnLzIwMDAvc3ZnIiBoZWlnaHQ9IjI1NiIgd2lkdGg9IjI1NiIgdmVyc2lvbj0iMS4xIiB2aWV3Qm94PSIwIDAgMTAyNCAxMDI0IiBjbGFzcz0iaWNvbiI+PHBhdGggZmlsbD0iIzhERDJGQyIgZD0iTTUwNi42NyA1MjBoLTMzLjI2Yy0wLjk5IDAtMS43OS0wLjgtMS43OS0xLjc5VjEyNS43OWMwLTAuOTkgMC44LTEuNzkgMS43OS0xLjc5aDMzLjI2YzAuOTkgMCAxLjc5IDAuOCAxLjc5IDEuNzl2MzkyLjQyYzAgMC45OS0wLjggMS43OS0xLjc5IDEuNzl6Ii8+PHBhdGggZmlsbD0iIzhERDJGQyIgZD0iTTUwMy4yNCAyOTMuMjdsLTIzLjUyIDIzLjUyYy0wLjcgMC43LTEuODMgMC43LTIuNTMgMEwzNzUuNTMgMjE1LjEyYy0wLjctMC43LTAuNy0xLjgzIDAtMi41M2wyMy41Mi0yMy41MmMwLjctMC43IDEuODMtMC43IDIuNTMgMGwxMDEuNjYgMTAxLjY2YzAuNyAwLjcxIDAuNyAxLjg0IDAgMi41NHoiLz48cGF0aCBmaWxsPSIjOEREMkZDIiBkPSJNNDc2Ljg0IDI5My4yN2wyMy41MiAyMy41MmMwLjcgMC43IDEuODMgMC43IDIuNTMgMGwxMDEuNjYtMTAxLjY2YzAuNy0wLjcgMC43LTEuODMgMC0yLjUzbC0yMy41Mi0yMy41MmMtMC43LTAuNy0xLjgzLTAuNy0yLjUzIDBMNDc2Ljg0IDI5MC43NGMtMC43IDAuNy0wLjcgMS44MyAwIDIuNTN6TTQ5OC4zNSA1MDUuNmwtMTYuNjMgMjguOGMtMC40OSAwLjg2LTEuNTkgMS4xNS0yLjQ1IDAuNjZMMTM5LjQzIDMzOC44NWExLjc5NiAxLjc5NiAwIDAgMS0wLjY2LTIuNDVsMTYuNjMtMjguOGMwLjQ5LTAuODYgMS41OS0xLjE1IDIuNDUtMC42Nkw0OTcuNyA1MDMuMTVjMC44NSAwLjUgMS4xNSAxLjU5IDAuNjUgMi40NXoiLz48cGF0aCBmaWxsPSIjOEREMkZDIiBkPSJNMzAwLjI4IDM5NS4ybDguNjEgMzIuMTJjMC4yNiAwLjk2LTAuMzEgMS45NC0xLjI3IDIuMTlsLTEzOC44NyAzNy4yMWMtMC45NiAwLjI2LTEuOTQtMC4zMS0yLjE5LTEuMjdsLTguNjEtMzIuMTJjLTAuMjYtMC45NiAwLjMxLTEuOTQgMS4yNy0yLjE5bDEzOC44Ny0zNy4yMWMwLjk2LTAuMjUgMS45NCAwLjMyIDIuMTkgMS4yN3oiLz48cGF0aCBmaWxsPSIjOEREMkZDIiBkPSJNMjg3LjA4IDQxOC4wN2wzMi4xMi04LjYxYzAuOTYtMC4yNiAxLjUyLTEuMjQgMS4yNy0yLjE5TDI4My4yNiAyNjguNGExLjc5NSAxLjc5NSAwIDAgMC0yLjE5LTEuMjdsLTMyLjEyIDguNjFjLTAuOTYgMC4yNi0xLjUyIDEuMjQtMS4yNyAyLjE5bDM3LjIxIDEzOC44N2ExLjc5IDEuNzkgMCAwIDAgMi4xOSAxLjI3eiIvPjxwYXRoIGZpbGw9IiM4REQyRkMiIGQ9Ik00ODEuNzIgNTA1LjZsMTYuNjMgMjguOGMwLjQ5IDAuODYgMC4yIDEuOTUtMC42NiAyLjQ1TDE1Ny44NSA3MzMuMDZjLTAuODYgMC40OS0xLjk1IDAuMi0yLjQ1LTAuNjZsLTE2LjYzLTI4LjhjLTAuNDktMC44Ni0wLjItMS45NSAwLjY2LTIuNDVsMzM5Ljg0LTE5Ni4yMWMwLjg3LTAuNDkgMS45Ni0wLjIgMi40NSAwLjY2eiIvPjxwYXRoIGZpbGw9IiM4REQyRkMiIGQ9Ik0yODcuMDggNjIxLjkzbDMyLjEyIDguNjFjMC45NiAwLjI2IDEuNTIgMS4yNCAxLjI3IDIuMTlMMjgzLjI2IDc3MS42Yy0wLjI2IDAuOTYtMS4yNCAxLjUyLTIuMTkgMS4yN2wtMzIuMTItOC42MWExLjc5NSAxLjc5NSAwIDAgMS0xLjI3LTIuMTlsMzcuMjEtMTM4Ljg3YTEuNzkgMS43OSAwIDAgMSAyLjE5LTEuMjd6Ii8+PHBhdGggZmlsbD0iIzhERDJGQyIgZD0iTTMwMC4yOCA2NDQuOGw4LjYxLTMyLjEyYzAuMjYtMC45Ni0wLjMxLTEuOTQtMS4yNy0yLjE5bC0xMzguODctMzcuMjFjLTAuOTYtMC4yNi0xLjk0IDAuMzEtMi4xOSAxLjI3bC04LjYxIDMyLjEyYy0wLjI2IDAuOTYgMC4zMSAxLjk0IDEuMjcgMi4xOWwxMzguODcgMzcuMjFjMC45NiAwLjI1IDEuOTQtMC4zMiAyLjE5LTEuMjd6Ii8+PHBhdGggZmlsbD0iIzhERDJGQyIgZD0iTTQ3My40MSA1MjBoMzMuMjZjMC45OSAwIDEuNzkgMC44IDEuNzkgMS43OXYzOTIuNDJjMCAwLjk5LTAuOCAxLjc5LTEuNzkgMS43OWgtMzMuMjZjLTAuOTkgMC0xLjc5LTAuOC0xLjc5LTEuNzlWNTIxLjc5YzAtMC45OSAwLjgtMS43OSAxLjc5LTEuNzl6Ii8+PHBhdGggZmlsbD0iIzhERDJGQyIgZD0iTTQ3Ni44NCA3NDYuNzNsMjMuNTItMjMuNTJjMC43LTAuNyAxLjgzLTAuNyAyLjUzIDBsMTAxLjY2IDEwMS42NmMwLjcgMC43IDAuNyAxLjgzIDAgMi41M2wtMjMuNTIgMjMuNTJjLTAuNyAwLjctMS44MyAwLjctMi41MyAwTDQ3Ni44NCA3NDkuMjZjLTAuNy0wLjctMC43LTEuODMgMC0yLjUzeiIvPjxwYXRoIGZpbGw9IiM4REQyRkMiIGQ9Ik01MDMuMjQgNzQ2LjczbC0yMy41Mi0yMy41MmMtMC43LTAuNy0xLjgzLTAuNy0yLjUzIDBMMzc1LjUzIDgyNC44OGMtMC43IDAuNy0wLjcgMS44MyAwIDIuNTNsMjMuNTIgMjMuNTJjMC43IDAuNyAxLjgzIDAuNyAyLjUzIDBsMTAxLjY2LTEwMS42NmMwLjctMC43MSAwLjctMS44NCAwLTIuNTR6Ii8+PHBhdGggZmlsbD0iIzhERDJGQyIgZD0iTTQ4MS43MiA1MzQuNGwxNi42My0yOC44YzAuNDktMC44NiAxLjU5LTEuMTUgMi40NS0wLjY2bDMzOS44NCAxOTYuMjFjMC44NiAwLjQ5IDEuMTUgMS41OSAwLjY2IDIuNDVsLTE2LjYzIDI4LjhjLTAuNDkgMC44Ni0xLjU5IDEuMTUtMi40NSAwLjY2TDQ4Mi4zOCA1MzYuODVjLTAuODYtMC41LTEuMTUtMS41OS0wLjY2LTIuNDV6Ii8+PHBhdGggZmlsbD0iIzhERDJGQyIgZD0iTTY3OS43OSA2NDQuOGwtOC42MS0zMi4xMmMtMC4yNi0wLjk2IDAuMzEtMS45NCAxLjI3LTIuMTlsMTM4Ljg3LTM3LjIxYzAuOTYtMC4yNiAxLjk0IDAuMzEgMi4xOSAxLjI3bDguNjEgMzIuMTJjMC4yNiAwLjk2LTAuMzEgMS45NC0xLjI3IDIuMTlsLTEzOC44NyAzNy4yMWMtMC45NSAwLjI1LTEuOTMtMC4zMi0yLjE5LTEuMjd6Ii8+PHBhdGggZmlsbD0iIzhERDJGQyIgZD0iTTY5MyA2MjEuOTNsLTMyLjEyIDguNjFjLTAuOTYgMC4yNi0xLjUyIDEuMjQtMS4yNyAyLjE5bDM3LjIxIDEzOC44N2MwLjI2IDAuOTYgMS4yNCAxLjUyIDIuMTkgMS4yN2wzMi4xMi04LjYxYzAuOTYtMC4yNiAxLjUyLTEuMjQgMS4yNy0yLjE5TDY5NS4xOSA2MjMuMmExLjc5NSAxLjc5NSAwIDAgMC0yLjE5LTEuMjd6Ii8+PHBhdGggZmlsbD0iIzhERDJGQyIgZD0iTTQ5OC4zNSA1MzQuNGwtMTYuNjMtMjguOGMtMC40OS0wLjg2LTAuMi0xLjk1IDAuNjYtMi40NWwzMzkuODQtMTk2LjIxYzAuODYtMC40OSAxLjk1LTAuMiAyLjQ1IDAuNjZsMTYuNjMgMjguOGMwLjQ5IDAuODYgMC4yIDEuOTUtMC42NiAyLjQ1TDUwMC44IDUzNS4wNmMtMC44NiAwLjQ5LTEuOTUgMC4yLTIuNDUtMC42NnoiLz48cGF0aCBmaWxsPSIjOEREMkZDIiBkPSJNNjkzIDQxOC4wN2wtMzIuMTItOC42MWExLjc5NSAxLjc5NSAwIDAgMS0xLjI3LTIuMTlsMzcuMjEtMTM4Ljg3YzAuMjYtMC45NiAxLjI0LTEuNTIgMi4xOS0xLjI3bDMyLjEyIDguNjFjMC45NiAwLjI2IDEuNTIgMS4yNCAxLjI3IDIuMTlMNjk1LjE5IDQxNi44Yy0wLjI2IDAuOTYtMS4yNCAxLjUyLTIuMTkgMS4yN3oiLz48cGF0aCBmaWxsPSIjOEREMkZDIiBkPSJNNjc5Ljc5IDM5NS4ybC04LjYxIDMyLjEyYy0wLjI2IDAuOTYgMC4zMSAxLjk0IDEuMjcgMi4xOWwxMzguODcgMzcuMjFjMC45NiAwLjI2IDEuOTQtMC4zMSAyLjE5LTEuMjdsOC42MS0zMi4xMmMwLjI2LTAuOTYtMC4zMS0xLjk0LTEuMjctMi4xOWwtMTM4Ljg3LTM3LjIxYy0wLjk1LTAuMjUtMS45MyAwLjMyLTIuMTkgMS4yN3oiLz48L3N2Zz4=" vertex="1" parent="1">
          <mxGeometry x="797" y="210" width="30" height="30" as="geometry" />
        </mxCell>
        <mxCell id="ImgrcDbzpY2Wqn9-QAdL-26" value="" style="shape=image;verticalLabelPosition=bottom;verticalAlign=top;imageAspect=0;aspect=fixed;image=data:image/svg+xml,PHN2ZyB4bWxuczp4bGluaz0iaHR0cDovL3d3dy53My5vcmcvMTk5OS94bGluayIgeG1sbnM9Imh0dHA6Ly93d3cudzMub3JnLzIwMDAvc3ZnIiBoZWlnaHQ9IjI1NiIgd2lkdGg9IjI1NiIgdmVyc2lvbj0iMS4xIiB2aWV3Qm94PSIwIDAgMTAyNCAxMDI0IiBjbGFzcz0iaWNvbiI+PHBhdGggZmlsbD0iIzhERDJGQyIgZD0iTTUwNi42NyA1MjBoLTMzLjI2Yy0wLjk5IDAtMS43OS0wLjgtMS43OS0xLjc5VjEyNS43OWMwLTAuOTkgMC44LTEuNzkgMS43OS0xLjc5aDMzLjI2YzAuOTkgMCAxLjc5IDAuOCAxLjc5IDEuNzl2MzkyLjQyYzAgMC45OS0wLjggMS43OS0xLjc5IDEuNzl6Ii8+PHBhdGggZmlsbD0iIzhERDJGQyIgZD0iTTUwMy4yNCAyOTMuMjdsLTIzLjUyIDIzLjUyYy0wLjcgMC43LTEuODMgMC43LTIuNTMgMEwzNzUuNTMgMjE1LjEyYy0wLjctMC43LTAuNy0xLjgzIDAtMi41M2wyMy41Mi0yMy41MmMwLjctMC43IDEuODMtMC43IDIuNTMgMGwxMDEuNjYgMTAxLjY2YzAuNyAwLjcxIDAuNyAxLjg0IDAgMi41NHoiLz48cGF0aCBmaWxsPSIjOEREMkZDIiBkPSJNNDc2Ljg0IDI5My4yN2wyMy41MiAyMy41MmMwLjcgMC43IDEuODMgMC43IDIuNTMgMGwxMDEuNjYtMTAxLjY2YzAuNy0wLjcgMC43LTEuODMgMC0yLjUzbC0yMy41Mi0yMy41MmMtMC43LTAuNy0xLjgzLTAuNy0yLjUzIDBMNDc2Ljg0IDI5MC43NGMtMC43IDAuNy0wLjcgMS44MyAwIDIuNTN6TTQ5OC4zNSA1MDUuNmwtMTYuNjMgMjguOGMtMC40OSAwLjg2LTEuNTkgMS4xNS0yLjQ1IDAuNjZMMTM5LjQzIDMzOC44NWExLjc5NiAxLjc5NiAwIDAgMS0wLjY2LTIuNDVsMTYuNjMtMjguOGMwLjQ5LTAuODYgMS41OS0xLjE1IDIuNDUtMC42Nkw0OTcuNyA1MDMuMTVjMC44NSAwLjUgMS4xNSAxLjU5IDAuNjUgMi40NXoiLz48cGF0aCBmaWxsPSIjOEREMkZDIiBkPSJNMzAwLjI4IDM5NS4ybDguNjEgMzIuMTJjMC4yNiAwLjk2LTAuMzEgMS45NC0xLjI3IDIuMTlsLTEzOC44NyAzNy4yMWMtMC45NiAwLjI2LTEuOTQtMC4zMS0yLjE5LTEuMjdsLTguNjEtMzIuMTJjLTAuMjYtMC45NiAwLjMxLTEuOTQgMS4yNy0yLjE5bDEzOC44Ny0zNy4yMWMwLjk2LTAuMjUgMS45NCAwLjMyIDIuMTkgMS4yN3oiLz48cGF0aCBmaWxsPSIjOEREMkZDIiBkPSJNMjg3LjA4IDQxOC4wN2wzMi4xMi04LjYxYzAuOTYtMC4yNiAxLjUyLTEuMjQgMS4yNy0yLjE5TDI4My4yNiAyNjguNGExLjc5NSAxLjc5NSAwIDAgMC0yLjE5LTEuMjdsLTMyLjEyIDguNjFjLTAuOTYgMC4yNi0xLjUyIDEuMjQtMS4yNyAyLjE5bDM3LjIxIDEzOC44N2ExLjc5IDEuNzkgMCAwIDAgMi4xOSAxLjI3eiIvPjxwYXRoIGZpbGw9IiM4REQyRkMiIGQ9Ik00ODEuNzIgNTA1LjZsMTYuNjMgMjguOGMwLjQ5IDAuODYgMC4yIDEuOTUtMC42NiAyLjQ1TDE1Ny44NSA3MzMuMDZjLTAuODYgMC40OS0xLjk1IDAuMi0yLjQ1LTAuNjZsLTE2LjYzLTI4LjhjLTAuNDktMC44Ni0wLjItMS45NSAwLjY2LTIuNDVsMzM5Ljg0LTE5Ni4yMWMwLjg3LTAuNDkgMS45Ni0wLjIgMi40NSAwLjY2eiIvPjxwYXRoIGZpbGw9IiM4REQyRkMiIGQ9Ik0yODcuMDggNjIxLjkzbDMyLjEyIDguNjFjMC45NiAwLjI2IDEuNTIgMS4yNCAxLjI3IDIuMTlMMjgzLjI2IDc3MS42Yy0wLjI2IDAuOTYtMS4yNCAxLjUyLTIuMTkgMS4yN2wtMzIuMTItOC42MWExLjc5NSAxLjc5NSAwIDAgMS0xLjI3LTIuMTlsMzcuMjEtMTM4Ljg3YTEuNzkgMS43OSAwIDAgMSAyLjE5LTEuMjd6Ii8+PHBhdGggZmlsbD0iIzhERDJGQyIgZD0iTTMwMC4yOCA2NDQuOGw4LjYxLTMyLjEyYzAuMjYtMC45Ni0wLjMxLTEuOTQtMS4yNy0yLjE5bC0xMzguODctMzcuMjFjLTAuOTYtMC4yNi0xLjk0IDAuMzEtMi4xOSAxLjI3bC04LjYxIDMyLjEyYy0wLjI2IDAuOTYgMC4zMSAxLjk0IDEuMjcgMi4xOWwxMzguODcgMzcuMjFjMC45NiAwLjI1IDEuOTQtMC4zMiAyLjE5LTEuMjd6Ii8+PHBhdGggZmlsbD0iIzhERDJGQyIgZD0iTTQ3My40MSA1MjBoMzMuMjZjMC45OSAwIDEuNzkgMC44IDEuNzkgMS43OXYzOTIuNDJjMCAwLjk5LTAuOCAxLjc5LTEuNzkgMS43OWgtMzMuMjZjLTAuOTkgMC0xLjc5LTAuOC0xLjc5LTEuNzlWNTIxLjc5YzAtMC45OSAwLjgtMS43OSAxLjc5LTEuNzl6Ii8+PHBhdGggZmlsbD0iIzhERDJGQyIgZD0iTTQ3Ni44NCA3NDYuNzNsMjMuNTItMjMuNTJjMC43LTAuNyAxLjgzLTAuNyAyLjUzIDBsMTAxLjY2IDEwMS42NmMwLjcgMC43IDAuNyAxLjgzIDAgMi41M2wtMjMuNTIgMjMuNTJjLTAuNyAwLjctMS44MyAwLjctMi41MyAwTDQ3Ni44NCA3NDkuMjZjLTAuNy0wLjctMC43LTEuODMgMC0yLjUzeiIvPjxwYXRoIGZpbGw9IiM4REQyRkMiIGQ9Ik01MDMuMjQgNzQ2LjczbC0yMy41Mi0yMy41MmMtMC43LTAuNy0xLjgzLTAuNy0yLjUzIDBMMzc1LjUzIDgyNC44OGMtMC43IDAuNy0wLjcgMS44MyAwIDIuNTNsMjMuNTIgMjMuNTJjMC43IDAuNyAxLjgzIDAuNyAyLjUzIDBsMTAxLjY2LTEwMS42NmMwLjctMC43MSAwLjctMS44NCAwLTIuNTR6Ii8+PHBhdGggZmlsbD0iIzhERDJGQyIgZD0iTTQ4MS43MiA1MzQuNGwxNi42My0yOC44YzAuNDktMC44NiAxLjU5LTEuMTUgMi40NS0wLjY2bDMzOS44NCAxOTYuMjFjMC44NiAwLjQ5IDEuMTUgMS41OSAwLjY2IDIuNDVsLTE2LjYzIDI4LjhjLTAuNDkgMC44Ni0xLjU5IDEuMTUtMi40NSAwLjY2TDQ4Mi4zOCA1MzYuODVjLTAuODYtMC41LTEuMTUtMS41OS0wLjY2LTIuNDV6Ii8+PHBhdGggZmlsbD0iIzhERDJGQyIgZD0iTTY3OS43OSA2NDQuOGwtOC42MS0zMi4xMmMtMC4yNi0wLjk2IDAuMzEtMS45NCAxLjI3LTIuMTlsMTM4Ljg3LTM3LjIxYzAuOTYtMC4yNiAxLjk0IDAuMzEgMi4xOSAxLjI3bDguNjEgMzIuMTJjMC4yNiAwLjk2LTAuMzEgMS45NC0xLjI3IDIuMTlsLTEzOC44NyAzNy4yMWMtMC45NSAwLjI1LTEuOTMtMC4zMi0yLjE5LTEuMjd6Ii8+PHBhdGggZmlsbD0iIzhERDJGQyIgZD0iTTY5MyA2MjEuOTNsLTMyLjEyIDguNjFjLTAuOTYgMC4yNi0xLjUyIDEuMjQtMS4yNyAyLjE5bDM3LjIxIDEzOC44N2MwLjI2IDAuOTYgMS4yNCAxLjUyIDIuMTkgMS4yN2wzMi4xMi04LjYxYzAuOTYtMC4yNiAxLjUyLTEuMjQgMS4yNy0yLjE5TDY5NS4xOSA2MjMuMmExLjc5NSAxLjc5NSAwIDAgMC0yLjE5LTEuMjd6Ii8+PHBhdGggZmlsbD0iIzhERDJGQyIgZD0iTTQ5OC4zNSA1MzQuNGwtMTYuNjMtMjguOGMtMC40OS0wLjg2LTAuMi0xLjk1IDAuNjYtMi40NWwzMzkuODQtMTk2LjIxYzAuODYtMC40OSAxLjk1LTAuMiAyLjQ1IDAuNjZsMTYuNjMgMjguOGMwLjQ5IDAuODYgMC4yIDEuOTUtMC42NiAyLjQ1TDUwMC44IDUzNS4wNmMtMC44NiAwLjQ5LTEuOTUgMC4yLTIuNDUtMC42NnoiLz48cGF0aCBmaWxsPSIjOEREMkZDIiBkPSJNNjkzIDQxOC4wN2wtMzIuMTItOC42MWExLjc5NSAxLjc5NSAwIDAgMS0xLjI3LTIuMTlsMzcuMjEtMTM4Ljg3YzAuMjYtMC45NiAxLjI0LTEuNTIgMi4xOS0xLjI3bDMyLjEyIDguNjFjMC45NiAwLjI2IDEuNTIgMS4yNCAxLjI3IDIuMTlMNjk1LjE5IDQxNi44Yy0wLjI2IDAuOTYtMS4yNCAxLjUyLTIuMTkgMS4yN3oiLz48cGF0aCBmaWxsPSIjOEREMkZDIiBkPSJNNjc5Ljc5IDM5NS4ybC04LjYxIDMyLjEyYy0wLjI2IDAuOTYgMC4zMSAxLjk0IDEuMjcgMi4xOWwxMzguODcgMzcuMjFjMC45NiAwLjI2IDEuOTQtMC4zMSAyLjE5LTEuMjdsOC42MS0zMi4xMmMwLjI2LTAuOTYtMC4zMS0xLjk0LTEuMjctMi4xOWwtMTM4Ljg3LTM3LjIxYy0wLjk1LTAuMjUtMS45MyAwLjMyLTIuMTkgMS4yN3oiLz48L3N2Zz4=" vertex="1" parent="1">
          <mxGeometry x="876" y="287" width="30" height="30" as="geometry" />
        </mxCell>
        <mxCell id="ImgrcDbzpY2Wqn9-QAdL-27" value="" style="shape=image;verticalLabelPosition=bottom;verticalAlign=top;imageAspect=0;aspect=fixed;image=data:image/svg+xml,PHN2ZyB4bWxuczp4bGluaz0iaHR0cDovL3d3dy53My5vcmcvMTk5OS94bGluayIgeG1sbnM9Imh0dHA6Ly93d3cudzMub3JnLzIwMDAvc3ZnIiBoZWlnaHQ9IjI1NiIgd2lkdGg9IjI1NiIgdmVyc2lvbj0iMS4xIiB2aWV3Qm94PSIwIDAgMTAyNCAxMDI0IiBjbGFzcz0iaWNvbiI+PHBhdGggZmlsbD0iI2Y5ZjI4YiIgZD0iTTY4OC41IDQ3NS40YzAuMy0wLjggMC41LTEuNSAwLjctMi4zIDAuMi0wLjggMC40LTEuNiAwLjUtMi40IDAuMi0wLjkgMC4yLTEuOCAwLjMtMi43IDAtMC41IDAuMS0wLjkgMC4xLTEuNCAwLTAuMy0wLjEtMC41LTAuMS0wLjggMC0wLjktMC4xLTEuOC0wLjMtMi43LTAuMS0wLjgtMC4yLTEuNS0wLjQtMi4zLTAuMi0wLjgtMC41LTEuNi0wLjctMi4zLTAuMy0wLjgtMC41LTEuNi0wLjktMi4zLTAuMy0wLjctMC44LTEuNC0xLjItMi4xLTAuNC0wLjctMC44LTEuNC0xLjMtMi4xLTAuNS0wLjctMS0xLjMtMS42LTEuOS0wLjUtMC42LTEuMS0xLjItMS43LTEuOGwtMS44LTEuNWMtMC43LTAuNi0xLjQtMS4xLTIuMi0xLjYtMC4yLTAuMS0wLjQtMC4zLTAuNy0wLjUtMC40LTAuMi0wLjktMC40LTEuMy0wLjYtMC44LTAuNC0xLjYtMC44LTIuNS0xLjEtMC44LTAuMy0xLjUtMC41LTIuMy0wLjctMC44LTAuMi0xLjYtMC40LTIuNC0wLjVsLTIuNy0wLjNjLTAuNSAwLTAuOS0wLjEtMS40LTAuMUg1NjBsNjcuMS0yODIuMmMwLjEtMC40IDAuMS0wLjkgMC4yLTEuMyAwLjItMC45IDAuMy0xLjggMC40LTIuNyAwLjEtMC44IDAuMS0xLjYgMC4xLTIuNCAwLTAuOC0wLjEtMS42LTAuMi0yLjUtMC4xLTAuOC0wLjItMS42LTAuNC0yLjQtMC4yLTAuOC0wLjQtMS41LTAuNi0yLjMtMC4zLTAuOC0wLjUtMS41LTAuOS0yLjMtMC4zLTAuOC0wLjctMS41LTEuMS0yLjItMC40LTAuNy0wLjgtMS40LTEuMi0yLTAuNS0wLjctMS0xLjMtMS41LTItMC41LTAuNi0xLjEtMS4yLTEuNy0xLjgtMC42LTAuNS0xLjEtMS4xLTEuOC0xLjYtMC43LTAuNi0xLjUtMS4xLTIuMi0xLjYtMC40LTAuMi0wLjctMC41LTEtMC43LTAuMy0wLjItMC42LTAuMy0wLjktMC40LTAuOC0wLjQtMS42LTAuOC0yLjQtMS4xLTAuOC0wLjMtMS42LTAuNi0yLjQtMC44LTAuMy0wLjEtMC43LTAuMy0xLTAuMy0wLjQtMC4xLTAuOS0wLjEtMS4zLTAuMi0wLjktMC4yLTEuOC0wLjMtMi43LTAuNC0wLjgtMC4xLTEuNi0wLjEtMi40LTAuMS0wLjggMC0xLjcgMC4xLTIuNSAwLjJzLTEuNiAwLjItMi40IDAuNGMtMC44IDAuMi0xLjYgMC40LTIuMyAwLjYtMC44IDAuMi0xLjUgMC41LTIuMyAwLjgtMC44IDAuMy0xLjUgMC43LTIuMiAxLjEtMC43IDAuNC0xLjQgMC44LTIgMS4yLTAuNyAwLjUtMS4zIDEtMiAxLjUtMC42IDAuNS0xLjIgMS4xLTEuOCAxLjctMC42IDAuNi0xLjEgMS4xLTEuNiAxLjgtMC42IDAuNy0xLjEgMS40LTEuNiAyLjItMC4yIDAuNC0wLjUgMC43LTAuNyAxTDMzNy4yIDU2MmMtMC4yIDAuNC0wLjQgMC45LTAuNiAxLjMtMC40IDAuOC0wLjggMS42LTEuMSAyLjUtMC4zIDAuOC0wLjUgMS41LTAuNyAyLjMtMC4yIDAuOC0wLjQgMS42LTAuNSAyLjQtMC4yIDAuOS0wLjIgMS44LTAuMyAyLjcgMCAwLjUtMC4xIDAuOS0wLjEgMS40IDAgMC4zIDAuMSAwLjUgMC4xIDAuOCAwIDAuOSAwLjEgMS44IDAuMyAyLjcgMC4xIDAuOCAwLjIgMS41IDAuNCAyLjMgMC4yIDAuOCAwLjUgMS42IDAuNyAyLjMgMC4zIDAuOCAwLjUgMS42IDAuOSAyLjMgMC4zIDAuNyAwLjggMS40IDEuMiAyLjEgMC40IDAuNyAwLjggMS40IDEuMyAyLjEgMC41IDAuNyAxIDEuMyAxLjYgMS45IDAuNSAwLjYgMS4xIDEuMiAxLjcgMS44bDEuOCAxLjVjMC43IDAuNiAxLjQgMS4xIDIuMiAxLjYgMC4yIDAuMSAwLjQgMC4zIDAuNyAwLjVsMi40IDEuMiAwLjYgMC4zYzEuNCAwLjYgMi44IDEgNC4yIDEuMyAwLjMgMC4xIDAuNiAwLjEgMSAwLjIgMS41IDAuMyAzIDAuNSA0LjUgMC41aDExMC44bC02Mi45IDI2NC45Yy0wLjEgMC40LTAuMSAwLjktMC4yIDEuMy0wLjIgMC45LTAuMyAxLjgtMC40IDIuNy0wLjEgMC44LTAuMSAxLjYtMC4xIDIuNCAwIDAuOCAwLjEgMS42IDAuMiAyLjUgMC4xIDAuOCAwLjIgMS42IDAuNCAyLjQgMC4yIDAuOCAwLjQgMS41IDAuNiAyLjMgMC4zIDAuOCAwLjUgMS41IDAuOSAyLjMgMC4zIDAuOCAwLjcgMS41IDEuMSAyLjIgMC40IDAuNyAwLjggMS40IDEuMiAyIDAuNSAwLjcgMSAxLjMgMS41IDIgMC41IDAuNiAxLjEgMS4yIDEuNyAxLjggMC42IDAuNSAxLjEgMS4xIDEuOCAxLjYgMC43IDAuNiAxLjQgMS4xIDIuMiAxLjYgMC40IDAuMiAwLjcgMC41IDEgMC43IDAuNCAwLjMgMC45IDAuNCAxLjMgMC43IDAuNCAwLjIgMC43IDAuNCAxLjEgMC41IDEuNCAwLjYgMi44IDEuMSA0LjIgMS41IDAuMSAwIDAuMSAwIDAuMiAwLjEgMC41IDAuMSAwLjkgMC4yIDEuNCAwLjIgMC41IDAuMSAwLjkgMC4yIDEuNCAwLjIgMC45IDAuMSAxLjcgMC4xIDIuNiAwLjJINDMyLjFjMS4yIDAgMi40LTAuMSAzLjYtMC4zIDAuNC0wLjEgMC44LTAuMiAxLjMtMC4yIDAuOC0wLjIgMS43LTAuNCAyLjUtMC42IDAuNC0wLjEgMC44LTAuMyAxLjItMC40IDAuOS0wLjQgMS45LTAuOCAyLjgtMS4yIDAuMi0wLjEgMC40LTAuMiAwLjctMC4zIDEuMS0wLjYgMi4yLTEuMyAzLjItMi4xIDAuMi0wLjIgMC40LTAuMyAwLjYtMC41IDAuOC0wLjYgMS41LTEuMyAyLjItMi4xIDAuMy0wLjMgMC42LTAuNyAwLjktMSAwLjUtMC42IDEuMS0xLjMgMS41LTIgMC4zLTAuNCAwLjYtMC44IDAuOC0xLjMgMC4xLTAuMiAwLjMtMC40IDAuNC0wLjZsMjMzLjMtNDA0LjFjMC4yLTAuNCAwLjQtMC45IDAuNi0xLjMgMC4xLTEgMC41LTEuOCAwLjgtMi43eiBtLTE2MiAxMDUuMWMzLjItMTMuNi01LjItMjcuMi0xOC44LTMwLjUtMi4yLTAuNS00LjQtMC42LTYuNi0wLjYtMC40IDAtMC43LTAuMS0xLjEtMC4xaC05N2wxMzQuOC0yMzMuNUw1MDQgNDU3LjljLTAuMyAxLjEtMC4zIDIuMy0wLjUgMy40LTAuMSAwLjMtMC4xIDAuNS0wLjEgMC44IDAgMC4zLTAuMSAwLjctMC4xIDEtMC4yIDEuMS0wLjMgMi4yLTAuMyAzLjQgMCAxNCAxMS4zIDI1LjMgMjUuMyAyNS4zSDYyMUw0OTYuMiA3MDguMWwzMC4zLTEyNy42eiIvPjwvc3ZnPg==" vertex="1" parent="1">
          <mxGeometry x="950" y="188" width="50" height="50" as="geometry" />
        </mxCell>
        <mxCell id="ImgrcDbzpY2Wqn9-QAdL-28" value="&lt;font style=&quot;font-size: 25px;&quot;&gt;发射端&lt;/font&gt;" style="text;html=1;align=center;verticalAlign=middle;whiteSpace=wrap;rounded=0;" vertex="1" parent="1">
          <mxGeometry x="477" y="165" width="102" height="30" as="geometry" />
        </mxCell>
        <mxCell id="ImgrcDbzpY2Wqn9-QAdL-29" value="&lt;font style=&quot;font-size: 25px;&quot;&gt;接收端&lt;/font&gt;" style="text;html=1;align=center;verticalAlign=middle;whiteSpace=wrap;rounded=0;" vertex="1" parent="1">
          <mxGeometry x="1157" y="165" width="102" height="30" as="geometry" />
        </mxCell>
        <mxCell id="ImgrcDbzpY2Wqn9-QAdL-30" value="" style="shape=image;verticalLabelPosition=bottom;verticalAlign=top;imageAspect=0;aspect=fixed;image=data:image/svg+xml,PHN2ZyB4bWxuczp4bGluaz0iaHR0cDovL3d3dy53My5vcmcvMTk5OS94bGluayIgeG1sbnM9Imh0dHA6Ly93d3cudzMub3JnLzIwMDAvc3ZnIiBoZWlnaHQ9IjI1NiIgd2lkdGg9IjI1NiIgdmVyc2lvbj0iMS4xIiB2aWV3Qm94PSIwIDAgMTAyNCAxMDI0IiBjbGFzcz0iaWNvbiI+PHBhdGggZmlsbD0iIzMyQzVGRiIgZD0iTTQ4NS4xMiA5NTYuOTI4YzE5Ny4zMTIgMCAzNTcuMTg0LTE0Ny4zMjggMzU3LjE4NC0zMjguOTYgMC0xMjEuMTUyLTExOS4wNC0zMDkuMTItMzU3LjEyLTU2My45NjhDMjQ3LjA0IDMxOC43ODQgMTI4IDUwNi44OCAxMjggNjI3LjkwNGMwIDE4MS43NiAxNTkuODcyIDMyOC45NiAzNTcuMTIgMzI4Ljk2eiIvPjwvc3ZnPg==" vertex="1" parent="1">
          <mxGeometry x="740" y="310" width="16" height="16" as="geometry" />
        </mxCell>
        <mxCell id="ImgrcDbzpY2Wqn9-QAdL-31" value="" style="shape=image;verticalLabelPosition=bottom;verticalAlign=top;imageAspect=0;aspect=fixed;image=data:image/svg+xml,PHN2ZyB4bWxuczp4bGluaz0iaHR0cDovL3d3dy53My5vcmcvMTk5OS94bGluayIgeG1sbnM9Imh0dHA6Ly93d3cudzMub3JnLzIwMDAvc3ZnIiBoZWlnaHQ9IjI1NiIgd2lkdGg9IjI1NiIgdmVyc2lvbj0iMS4xIiB2aWV3Qm94PSIwIDAgMTAyNCAxMDI0IiBjbGFzcz0iaWNvbiI+PHBhdGggZmlsbD0iIzMyQzVGRiIgZD0iTTQ4NS4xMiA5NTYuOTI4YzE5Ny4zMTIgMCAzNTcuMTg0LTE0Ny4zMjggMzU3LjE4NC0zMjguOTYgMC0xMjEuMTUyLTExOS4wNC0zMDkuMTItMzU3LjEyLTU2My45NjhDMjQ3LjA0IDMxOC43ODQgMTI4IDUwNi44OCAxMjggNjI3LjkwNGMwIDE4MS43NiAxNTkuODcyIDMyOC45NiAzNTcuMTIgMzI4Ljk2eiIvPjwvc3ZnPg==" vertex="1" parent="1">
          <mxGeometry x="754" y="254" width="16" height="16" as="geometry" />
        </mxCell>
        <mxCell id="ImgrcDbzpY2Wqn9-QAdL-32" value="" style="shape=image;verticalLabelPosition=bottom;verticalAlign=top;imageAspect=0;aspect=fixed;image=data:image/svg+xml,PHN2ZyB4bWxuczp4bGluaz0iaHR0cDovL3d3dy53My5vcmcvMTk5OS94bGluayIgeG1sbnM9Imh0dHA6Ly93d3cudzMub3JnLzIwMDAvc3ZnIiBoZWlnaHQ9IjI1NiIgd2lkdGg9IjI1NiIgdmVyc2lvbj0iMS4xIiB2aWV3Qm94PSIwIDAgMTAyNCAxMDI0IiBjbGFzcz0iaWNvbiI+PHBhdGggZmlsbD0iIzMyQzVGRiIgZD0iTTQ4NS4xMiA5NTYuOTI4YzE5Ny4zMTIgMCAzNTcuMTg0LTE0Ny4zMjggMzU3LjE4NC0zMjguOTYgMC0xMjEuMTUyLTExOS4wNC0zMDkuMTItMzU3LjEyLTU2My45NjhDMjQ3LjA0IDMxOC43ODQgMTI4IDUwNi44OCAxMjggNjI3LjkwNGMwIDE4MS43NiAxNTkuODcyIDMyOC45NiAzNTcuMTIgMzI4Ljk2eiIvPjwvc3ZnPg==" vertex="1" parent="1">
          <mxGeometry x="917" y="264" width="16" height="16" as="geometry" />
        </mxCell>
        <mxCell id="ImgrcDbzpY2Wqn9-QAdL-33" value="" style="shape=image;verticalLabelPosition=bottom;verticalAlign=top;imageAspect=0;aspect=fixed;image=data:image/svg+xml,PHN2ZyB4bWxuczp4bGluaz0iaHR0cDovL3d3dy53My5vcmcvMTk5OS94bGluayIgeG1sbnM9Imh0dHA6Ly93d3cudzMub3JnLzIwMDAvc3ZnIiBoZWlnaHQ9IjI1NiIgd2lkdGg9IjI1NiIgdmVyc2lvbj0iMS4xIiB2aWV3Qm94PSIwIDAgMTAyNCAxMDI0IiBjbGFzcz0iaWNvbiI+PHBhdGggZmlsbD0iIzMyQzVGRiIgZD0iTTQ4NS4xMiA5NTYuOTI4YzE5Ny4zMTIgMCAzNTcuMTg0LTE0Ny4zMjggMzU3LjE4NC0zMjguOTYgMC0xMjEuMTUyLTExOS4wNC0zMDkuMTItMzU3LjEyLTU2My45NjhDMjQ3LjA0IDMxOC43ODQgMTI4IDUwNi44OCAxMjggNjI3LjkwNGMwIDE4MS43NiAxNTkuODcyIDMyOC45NiAzNTcuMTIgMzI4Ljk2eiIvPjwvc3ZnPg==" vertex="1" parent="1">
          <mxGeometry x="930" y="326" width="16" height="16" as="geometry" />
        </mxCell>
        <mxCell id="ImgrcDbzpY2Wqn9-QAdL-34" value="" style="shape=image;verticalLabelPosition=bottom;verticalAlign=top;imageAspect=0;aspect=fixed;image=data:image/svg+xml,PHN2ZyB4bWxuczp4bGluaz0iaHR0cDovL3d3dy53My5vcmcvMTk5OS94bGluayIgeG1sbnM9Imh0dHA6Ly93d3cudzMub3JnLzIwMDAvc3ZnIiBoZWlnaHQ9IjI1NiIgd2lkdGg9IjI1NiIgdmVyc2lvbj0iMS4xIiB2aWV3Qm94PSIwIDAgMTAyNCAxMDI0IiBjbGFzcz0iaWNvbiI+PHBhdGggZmlsbD0iIzMyQzVGRiIgZD0iTTQ4NS4xMiA5NTYuOTI4YzE5Ny4zMTIgMCAzNTcuMTg0LTE0Ny4zMjggMzU3LjE4NC0zMjguOTYgMC0xMjEuMTUyLTExOS4wNC0zMDkuMTItMzU3LjEyLTU2My45NjhDMjQ3LjA0IDMxOC43ODQgMTI4IDUwNi44OCAxMjggNjI3LjkwNGMwIDE4MS43NiAxNTkuODcyIDMyOC45NiAzNTcuMTIgMzI4Ljk2eiIvPjwvc3ZnPg==" vertex="1" parent="1">
          <mxGeometry x="868" y="264" width="16" height="16" as="geometry" />
        </mxCell>
        <mxCell id="ImgrcDbzpY2Wqn9-QAdL-35" value="" style="shape=image;verticalLabelPosition=bottom;verticalAlign=top;imageAspect=0;aspect=fixed;image=data:image/svg+xml,PHN2ZyB4bWxuczp4bGluaz0iaHR0cDovL3d3dy53My5vcmcvMTk5OS94bGluayIgeG1sbnM9Imh0dHA6Ly93d3cudzMub3JnLzIwMDAvc3ZnIiBoZWlnaHQ9IjI1NiIgd2lkdGg9IjI1NiIgdmVyc2lvbj0iMS4xIiB2aWV3Qm94PSIwIDAgMTAyNCAxMDI0IiBjbGFzcz0iaWNvbiI+PHBhdGggZmlsbD0iIzMyQzVGRiIgZD0iTTQ4NS4xMiA5NTYuOTI4YzE5Ny4zMTIgMCAzNTcuMTg0LTE0Ny4zMjggMzU3LjE4NC0zMjguOTYgMC0xMjEuMTUyLTExOS4wNC0zMDkuMTItMzU3LjEyLTU2My45NjhDMjQ3LjA0IDMxOC43ODQgMTI4IDUwNi44OCAxMjggNjI3LjkwNGMwIDE4MS43NiAxNTkuODcyIDMyOC45NiAzNTcuMTIgMzI4Ljk2eiIvPjwvc3ZnPg==" vertex="1" parent="1">
          <mxGeometry x="844" y="342" width="16" height="16" as="geometry" />
        </mxCell>
        <mxCell id="ImgrcDbzpY2Wqn9-QAdL-37" value="" style="html=1;shadow=0;dashed=0;align=center;verticalAlign=middle;shape=mxgraph.arrows2.arrow;dy=0.6;dx=40;notch=0;" vertex="1" parent="1">
          <mxGeometry x="460" y="80" width="136" height="80" as="geometry" />
        </mxCell>
        <mxCell id="ImgrcDbzpY2Wqn9-QAdL-39" value="" style="html=1;shadow=0;dashed=0;align=center;verticalAlign=middle;shape=mxgraph.arrows2.arrow;dy=0.6;dx=40;notch=0;" vertex="1" parent="1">
          <mxGeometry x="1140" y="80" width="136" height="80" as="geometry" />
        </mxCell>
        <mxCell id="ImgrcDbzpY2Wqn9-QAdL-40" value="&lt;font style=&quot;font-size: 25px;&quot;&gt;信号发射功率&lt;/font&gt;" style="text;html=1;align=center;verticalAlign=middle;whiteSpace=wrap;rounded=0;" vertex="1" parent="1">
          <mxGeometry x="448.5" y="30" width="159" height="30" as="geometry" />
        </mxCell>
        <mxCell id="ImgrcDbzpY2Wqn9-QAdL-41" value="&lt;font style=&quot;font-size: 25px;&quot;&gt;信号接受功率&lt;/font&gt;" style="text;html=1;align=center;verticalAlign=middle;whiteSpace=wrap;rounded=0;" vertex="1" parent="1">
          <mxGeometry x="1128.5" y="30" width="159" height="30" as="geometry" />
        </mxCell>
      </root>
    </mxGraphModel>
  </diagram>
</mxfile>
